<svg xmlns="http://www.w3.org/2000/svg" viewBox="0 0 1100 780" width="1100" height="780">
  <defs>
    <linearGradient id="bg" x1="0" y1="0" x2="0" y2="1">
      <stop offset="0%" stop-color="#0f172a"/>
      <stop offset="100%" stop-color="#1e293b"/>
    </linearGradient>
    <linearGradient id="kernel" x1="0" y1="0" x2="1" y2="1">
      <stop offset="0%" stop-color="#2563eb"/>
      <stop offset="100%" stop-color="#7c3aed"/>
    </linearGradient>
    <linearGradient id="hardware" x1="0" y1="0" x2="1" y2="1">
      <stop offset="0%" stop-color="#0891b2"/>
      <stop offset="100%" stop-color="#0d9488"/>
    </linearGradient>
    <linearGradient id="system" x1="0" y1="0" x2="1" y2="1">
      <stop offset="0%" stop-color="#ca8a04"/>
      <stop offset="100%" stop-color="#d97706"/>
    </linearGradient>
    <linearGradient id="ai" x1="0" y1="0" x2="1" y2="1">
      <stop offset="0%" stop-color="#dc2626"/>
      <stop offset="100%" stop-color="#db2777"/>
    </linearGradient>
    <linearGradient id="ui" x1="0" y1="0" x2="1" y2="1">
      <stop offset="0%" stop-color="#7c3aed"/>
      <stop offset="100%" stop-color="#a855f7"/>
    </linearGradient>
    <linearGradient id="security" x1="0" y1="0" x2="1" y2="1">
      <stop offset="0%" stop-color="#059669"/>
      <stop offset="100%" stop-color="#10b981"/>
    </linearGradient>
    <linearGradient id="titleGrad" x1="0" y1="0" x2="1" y2="1">
      <stop offset="0%" stop-color="#60a5fa"/>
      <stop offset="100%" stop-color="#a78bfa"/>
    </linearGradient>
    <filter id="glow">
      <feGaussianBlur stdDeviation="2" result="coloredBlur"/>
      <feMerge><feMergeNode in="coloredBlur"/><feMergeNode in="SourceGraphic"/></feMerge>
    </filter>
    <filter id="shadow">
      <feDropShadow dx="0" dy="2" stdDeviation="4" flood-opacity="0.3"/>
    </filter>
  </defs>

  <!-- Background -->
  <rect width="1100" height="780" rx="16" fill="url(#bg)"/>

  <!-- Grid overlay -->
  <g opacity="0.03">
    <line x1="0" y1="0" x2="1100" y2="780" stroke="#fff" stroke-width="0.5"/>
    <line x1="220" y1="0" x2="1100" y2="580" stroke="#fff" stroke-width="0.5"/>
    <line x1="440" y1="0" x2="1100" y2="380" stroke="#fff" stroke-width="0.5"/>
    <line x1="660" y1="0" x2="1100" y2="180" stroke="#fff" stroke-width="0.5"/>
    <line x1="0" y1="195" x2="1100" y2="195" stroke="#fff" stroke-width="0.5"/>
    <line x1="0" y1="390" x2="1100" y2="390" stroke="#fff" stroke-width="0.5"/>
    <line x1="0" y1="585" x2="1100" y2="585" stroke="#fff" stroke-width="0.5"/>
  </g>

  <!-- Title -->
  <text x="550" y="42" text-anchor="middle" font-family="system-ui, sans-serif" font-size="26" font-weight="800" fill="url(#titleGrad)" letter-spacing="2">KAIROSOS</text>
  <text x="550" y="62" text-anchor="middle" font-family="system-ui, sans-serif" font-size="13" fill="#94a3b8" letter-spacing="4">AUTONOMOUS OS ARCHITECTURE</text>
  <line x1="350" y1="70" x2="750" y2="70" stroke="#334155" stroke-width="1"/>

  <!-- Stats bar -->
  <rect x="40" y="82" width="1020" height="30" rx="6" fill="#1e293b" opacity="0.6"/>
  <text x="60" y="101" font-family="monospace" font-size="11" fill="#818cf8">20 Rust Daemons</text>
  <circle cx="55" cy="97" r="3" fill="#818cf8"/>
  <text x="270" y="101" font-family="monospace" font-size="11" fill="#f472b6">8 Python AI Services</text>
  <circle cx="265" cy="97" r="3" fill="#f472b6"/>
  <text x="510" y="101" font-family="monospace" font-size="11" fill="#34d399">7 Kernel Modules (C)</text>
  <circle cx="505" cy="97" r="3" fill="#34d399"/>
  <text x="730" y="101" font-family="monospace" font-size="11" fill="#fbbf24">22 AppArmor Profiles</text>
  <circle cx="725" cy="97" r="3" fill="#fbbf24"/>
  <text x="920" y="101" font-family="monospace" font-size="11" fill="#60a5fa">OTA Updates</text>
  <circle cx="915" cy="97" r="3" fill="#60a5fa"/>

  <!-- Layer 6: User Interface -->
  <rect x="40" y="130" width="1020" height="85" rx="10" fill="url(#ui)" opacity="0.15" filter="url(#shadow)"/>
  <rect x="40" y="130" width="4" height="85" rx="2" fill="url(#ui)"/>
  <text x="60" y="153" font-family="system-ui, sans-serif" font-size="13" font-weight="700" fill="#c084fc" letter-spacing="2">UI LAYER</text>

  <rect x="60" y="162" width="135" height="40" rx="6" fill="#2e1065" opacity="0.7"/>
  <text x="72" y="187" font-family="monospace" font-size="11" fill="#d8b4fe">kairos-tui</text>
  <text x="72" y="199" font-family="system-ui" font-size="8" fill="#6b21a8">DRM/KMS Terminal</text>

  <rect x="210" y="162" width="135" height="40" rx="6" fill="#2e1065" opacity="0.7"/>
  <text x="222" y="187" font-family="monospace" font-size="11" fill="#d8b4fe">kairos-fb</text>
  <text x="222" y="199" font-family="system-ui" font-size="8" fill="#6b21a8">Framebuffer Engine</text>

  <rect x="360" y="162" width="135" height="40" rx="6" fill="#2e1065" opacity="0.7"/>
  <text x="372" y="187" font-family="monospace" font-size="11" fill="#d8b4fe">kairos-web</text>
  <text x="372" y="199" font-family="system-ui" font-size="8" fill="#6b21a8">Dashboards</text>

  <rect x="510" y="162" width="135" height="40" rx="6" fill="#2e1065" opacity="0.7"/>
  <text x="522" y="187" font-family="monospace" font-size="11" fill="#d8b4fe">kairos-bpf</text>
  <text x="522" y="199" font-family="system-ui" font-size="8" fill="#6b21a8">eBPF Telemetry</text>

  <rect x="660" y="162" width="135" height="40" rx="6" fill="#2e1065" opacity="0.7"/>
  <text x="672" y="187" font-family="monospace" font-size="11" fill="#d8b4fe">kairos-mcp</text>
  <text x="672" y="199" font-family="system-ui" font-size="8" fill="#6b21a8">Protocol Router</text>

  <!-- Arrow -->
  <polygon points="550,221 540,215 560,215" fill="#334155"/>

  <!-- Layer 5: AI / Reasoning -->
  <rect x="40" y="230" width="1020" height="105" rx="10" fill="url(#ai)" opacity="0.12" filter="url(#shadow)"/>
  <rect x="40" y="230" width="4" height="105" rx="2" fill="url(#ai)"/>
  <text x="60" y="253" font-family="system-ui, sans-serif" font-size="13" font-weight="700" fill="#fb7185" letter-spacing="2">AI / REASONING LAYER</text>

  <rect x="60" y="262" width="115" height="60" rx="6" fill="#4c0519" opacity="0.7"/>
  <text x="72" y="283" font-family="monospace" font-size="10" fill="#fda4af">confidence</text>
  <text x="72" y="295" font-family="monospace" font-size="8" fill="#881337">Scoring</text>
  <text x="72" y="307" font-family="monospace" font-size="8" fill="#881337">Engine</text>

  <rect x="190" y="262" width="115" height="60" rx="6" fill="#4c0519" opacity="0.7"/>
  <text x="202" y="283" font-family="monospace" font-size="10" fill="#fda4af">context-mgr</text>
  <text x="202" y="295" font-family="monospace" font-size="8" fill="#881337">Context</text>
  <text x="202" y="307" font-family="monospace" font-size="8" fill="#881337">Window</text>

  <rect x="320" y="262" width="115" height="60" rx="6" fill="#4c0519" opacity="0.7"/>
  <text x="332" y="283" font-family="monospace" font-size="10" fill="#fda4af">supervisor</text>
  <text x="332" y="295" font-family="monospace" font-size="8" fill="#881337">System</text>
  <text x="332" y="307" font-family="monospace" font-size="8" fill="#881337">Overseer</text>

  <rect x="450" y="262" width="115" height="60" rx="6" fill="#4c0519" opacity="0.7"/>
  <text x="462" y="283" font-family="monospace" font-size="10" fill="#fda4af">hermes-agent</text>
  <text x="462" y="295" font-family="monospace" font-size="8" fill="#881337">Autonomous</text>
  <text x="462" y="307" font-family="monospace" font-size="8" fill="#881337">Agent</text>

  <rect x="580" y="262" width="115" height="60" rx="6" fill="#4c0519" opacity="0.7"/>
  <text x="592" y="283" font-family="monospace" font-size="10" fill="#fda4af">knowledge-graph</text>
  <text x="592" y="295" font-family="monospace" font-size="8" fill="#881337">Relationship</text>
  <text x="592" y="307" font-family="monospace" font-size="8" fill="#881337">Store</text>

  <rect x="710" y="262" width="115" height="60" rx="6" fill="#4c0519" opacity="0.7"/>
  <text x="722" y="283" font-family="monospace" font-size="10" fill="#fda4af">skill-evolver</text>
  <text x="722" y="295" font-family="monospace" font-size="8" fill="#881337">Skill</text>
  <text x="722" y="307" font-family="monospace" font-size="8" fill="#881337">Evolution</text>

  <rect x="840" y="262" width="115" height="60" rx="6" fill="#4c0519" opacity="0.7"/>
  <text x="852" y="283" font-family="monospace" font-size="9" fill="#fda4af">task-scheduler</text>
  <text x="852" y="295" font-family="monospace" font-size="8" fill="#881337">DAG</text>
  <text x="852" y="307" font-family="monospace" font-size="8" fill="#881337">Scheduler</text>

  <rect x="970" y="262" width="75" height="60" rx="6" fill="#4c0519" opacity="0.7"/>
  <text x="982" y="283" font-family="monospace" font-size="8" fill="#fda4af">telemetry</text>
  <text x="982" y="295" font-family="monospace" font-size="7" fill="#881337">Metrics</text>
  <text x="982" y="307" font-family="monospace" font-size="7" fill="#881337">Collector</text>

  <polygon points="550,341 540,335 560,335" fill="#334155"/>

  <!-- Layer 4: Core Orchestration -->
  <rect x="40" y="350" width="1020" height="85" rx="10" fill="url(#system)" opacity="0.12" filter="url(#shadow)"/>
  <rect x="40" y="350" width="4" height="85" rx="2" fill="url(#system)"/>
  <text x="60" y="373" font-family="system-ui, sans-serif" font-size="13" font-weight="700" fill="#fbbf24" letter-spacing="2">CORE ORCHESTRATION</text>

  <rect x="60" y="382" width="120" height="40" rx="6" fill="#422006" opacity="0.7"/>
  <text x="72" y="407" font-family="monospace" font-size="11" fill="#fde68a">orchestrator</text>
  <text x="72" y="419" font-family="system-ui" font-size="8" fill="#a16207">DAG Scheduler</text>

  <rect x="195" y="382" width="120" height="40" rx="6" fill="#422006" opacity="0.7"/>
  <text x="207" y="407" font-family="monospace" font-size="11" fill="#fde68a">kairos-mesh</text>
  <text x="207" y="419" font-family="system-ui" font-size="8" fill="#a16207">WireGuard Mesh</text>

  <rect x="330" y="382" width="120" height="40" rx="6" fill="#422006" opacity="0.7"/>
  <text x="342" y="407" font-family="monospace" font-size="11" fill="#fde68a">kairos-db</text>
  <text x="342" y="419" font-family="system-ui" font-size="8" fill="#a16207">Vector / SQLite</text>

  <rect x="465" y="382" width="120" height="40" rx="6" fill="#422006" opacity="0.7"/>
  <text x="477" y="407" font-family="monospace" font-size="11" fill="#fde68a">kairos-mcp</text>
  <text x="477" y="419" font-family="system-ui" font-size="8" fill="#a16207">MCP Router</text>

  <rect x="600" y="382" width="120" height="40" rx="6" fill="#422006" opacity="0.7"/>
  <text x="612" y="407" font-family="monospace" font-size="11" fill="#fde68a">kairos-apply</text>
  <text x="612" y="419" font-family="system-ui" font-size="8" fill="#a16207">Declarative Config</text>

  <rect x="735" y="382" width="120" height="40" rx="6" fill="#422006" opacity="0.7"/>
  <text x="747" y="407" font-family="monospace" font-size="11" fill="#fde68a">git-logger</text>
  <text x="747" y="419" font-family="system-ui" font-size="8" fill="#a16207">/etc Versioning</text>

  <rect x="870" y="382" width="175" height="40" rx="6" fill="#422006" opacity="0.7"/>
  <text x="882" y="407" font-family="monospace" font-size="11" fill="#fde68a">kairos-llm</text>
  <text x="882" y="419" font-family="system-ui" font-size="8" fill="#a16207">Local LLM Runtime</text>

  <polygon points="550,441 540,435 560,435" fill="#334155"/>

  <!-- Layer 3: Hardware / System Control -->
  <rect x="40" y="450" width="1020" height="85" rx="10" fill="url(#hardware)" opacity="0.12" filter="url(#shadow)"/>
  <rect x="40" y="450" width="4" height="85" rx="2" fill="url(#hardware)"/>
  <text x="60" y="473" font-family="system-ui, sans-serif" font-size="13" font-weight="700" fill="#22d3ee" letter-spacing="2">HARDWARE / SYSTEM CONTROL</text>

  <rect x="60" y="482" width="110" height="40" rx="6" fill="#164e63" opacity="0.7"/>
  <text x="72" y="507" font-family="monospace" font-size="11" fill="#67e8f9">recovery</text>
  <text x="72" y="519" font-family="system-ui" font-size="8" fill="#0e7490">A/B Partitions</text>

  <rect x="185" y="482" width="110" height="40" rx="6" fill="#164e63" opacity="0.7"/>
  <text x="197" y="507" font-family="monospace" font-size="11" fill="#67e8f9">avionics</text>
  <text x="197" y="519" font-family="system-ui" font-size="8" fill="#0e7490">Bus Protocols</text>

  <rect x="310" y="482" width="110" height="40" rx="6" fill="#164e63" opacity="0.7"/>
  <text x="322" y="507" font-family="monospace" font-size="11" fill="#67e8f9">robotics</text>
  <text x="322" y="519" font-family="system-ui" font-size="8" fill="#0e7490">Motor Control</text>

  <rect x="435" y="482" width="110" height="40" rx="6" fill="#164e63" opacity="0.7"/>
  <text x="447" y="507" font-family="monospace" font-size="11" fill="#67e8f9">vision</text>
  <text x="447" y="519" font-family="system-ui" font-size="8" fill="#0e7490">Object Detection</text>

  <rect x="560" y="482" width="110" height="40" rx="6" fill="#164e63" opacity="0.7"/>
  <text x="572" y="507" font-family="monospace" font-size="11" fill="#67e8f9">climate</text>
  <text x="572" y="519" font-family="system-ui" font-size="8" fill="#0e7490">Data Assimilation</text>

  <rect x="685" y="482" width="110" height="40" rx="6" fill="#164e63" opacity="0.7"/>
  <text x="697" y="507" font-family="monospace" font-size="11" fill="#67e8f9">finance</text>
  <text x="697" y="519" font-family="system-ui" font-size="8" fill="#0e7490">Market Data</text>

  <rect x="810" y="482" width="110" height="40" rx="6" fill="#164e63" opacity="0.7"/>
  <text x="822" y="507" font-family="monospace" font-size="11" fill="#67e8f9">quantum</text>
  <text x="822" y="519" font-family="system-ui" font-size="8" fill="#0e7490">Gate Simulator</text>

  <rect x="935" y="482" width="110" height="40" rx="6" fill="#164e63" opacity="0.7"/>
  <text x="947" y="507" font-family="monospace" font-size="11" fill="#67e8f9">bio</text>
  <text x="947" y="519" font-family="system-ui" font-size="8" fill="#0e7490">Genomics</text>

  <polygon points="550,541 540,535 560,535" fill="#334155"/>

  <!-- Layer 2: Kernel Modules -->
  <rect x="40" y="550" width="1020" height="85" rx="10" fill="url(#kernel)" opacity="0.12" filter="url(#shadow)"/>
  <rect x="40" y="550" width="4" height="85" rx="2" fill="url(#kernel)"/>
  <text x="60" y="573" font-family="system-ui, sans-serif" font-size="13" font-weight="700" fill="#93a5fc" letter-spacing="2">KERNEL MODULES (C)</text>

  <rect x="60" y="582" width="120" height="40" rx="6" fill="#1e1b4b" opacity="0.7"/>
  <text x="72" y="607" font-family="monospace" font-size="11" fill="#a5b4fc">dm-verity</text>
  <text x="72" y="619" font-family="system-ui" font-size="8" fill="#4338ca">Block Integrity</text>

  <rect x="195" y="582" width="120" height="40" rx="6" fill="#1e1b4b" opacity="0.7"/>
  <text x="207" y="607" font-family="monospace" font-size="11" fill="#a5b4fc">tpm</text>
  <text x="207" y="619" font-family="system-ui" font-size="8" fill="#4338ca">TPM 2.0 Binding</text>

  <rect x="330" y="582" width="120" height="40" rx="6" fill="#1e1b4b" opacity="0.7"/>
  <text x="342" y="607" font-family="monospace" font-size="11" fill="#a5b4fc">edac</text>
  <text x="342" y="619" font-family="system-ui" font-size="8" fill="#4338ca">ECC Memory</text>

  <rect x="465" y="582" width="120" height="40" rx="6" fill="#1e1b4b" opacity="0.7"/>
  <text x="477" y="607" font-family="monospace" font-size="11" fill="#a5b4fc">ptp</text>
  <text x="477" y="619" font-family="system-ui" font-size="8" fill="#4338ca">PTP Clock</text>

  <rect x="600" y="582" width="120" height="40" rx="6" fill="#1e1b4b" opacity="0.7"/>
  <text x="612" y="607" font-family="monospace" font-size="11" fill="#a5b4fc">framebuffer</text>
  <text x="612" y="619" font-family="system-ui" font-size="8" fill="#4338ca">Display Canvas</text>

  <rect x="735" y="582" width="120" height="40" rx="6" fill="#1e1b4b" opacity="0.7"/>
  <text x="747" y="607" font-family="monospace" font-size="11" fill="#a5b4fc">iommu</text>
  <text x="747" y="619" font-family="system-ui" font-size="8" fill="#4338ca">DMA Isolation</text>

  <rect x="870" y="582" width="175" height="40" rx="6" fill="#1e1b4b" opacity="0.7"/>
  <text x="882" y="607" font-family="monospace" font-size="11" fill="#a5b4fc">prochot</text>
  <text x="882" y="619" font-family="system-ui" font-size="8" fill="#4338ca">Thermal Throttle</text>

  <polygon points="550,641 540,635 560,635" fill="#334155"/>

  <!-- Layer 1: Security & OTA -->
  <rect x="40" y="650" width="1020" height="105" rx="10" fill="url(#security)" opacity="0.12" filter="url(#shadow)"/>
  <rect x="40" y="650" width="4" height="105" rx="2" fill="url(#security)"/>
  <text x="60" y="673" font-family="system-ui, sans-serif" font-size="13" font-weight="700" fill="#34d399" letter-spacing="2">SECURITY &amp; LIFECYCLE</text>

  <rect x="60" y="682" width="140" height="60" rx="6" fill="#022c22" opacity="0.7"/>
  <text x="72" y="703" font-family="monospace" font-size="10" fill="#6ee7b7">22 AppArmor</text>
  <text x="72" y="715" font-family="monospace" font-size="9" fill="#065f46">Profiles</text>
  <text x="72" y="727" font-family="system-ui" font-size="8" fill="#065f46">Daemon-specific</text>

  <rect x="220" y="682" width="140" height="60" rx="6" fill="#022c22" opacity="0.7"/>
  <text x="232" y="703" font-family="monospace" font-size="10" fill="#6ee7b7">A/B Partitions</text>
  <text x="232" y="715" font-family="monospace" font-size="9" fill="#065f46">OTA Updates</text>
  <text x="232" y="727" font-family="system-ui" font-size="8" fill="#065f46">Auto-rollback</text>

  <rect x="380" y="682" width="140" height="60" rx="6" fill="#022c22" opacity="0.7"/>
  <text x="392" y="703" font-family="monospace" font-size="10" fill="#6ee7b7">dm-verity</text>
  <text x="392" y="715" font-family="monospace" font-size="9" fill="#065f46">Integrity</text>
  <text x="392" y="727" font-family="system-ui" font-size="8" fill="#065f46">Block-level</text>

  <rect x="540" y="682" width="140" height="60" rx="6" fill="#022c22" opacity="0.7"/>
  <text x="552" y="703" font-family="monospace" font-size="10" fill="#6ee7b7">GPG Signing</text>
  <text x="552" y="715" font-family="monospace" font-size="9" fill="#065f46">Update</text>
  <text x="552" y="727" font-family="system-ui" font-size="8" fill="#065f46">Manifests</text>

  <rect x="700" y="682" width="140" height="60" rx="6" fill="#022c22" opacity="0.7"/>
  <text x="712" y="703" font-family="monospace" font-size="10" fill="#6ee7b7">Staged Rollout</text>
  <text x="712" y="715" font-family="monospace" font-size="9" fill="#065f46">Canary-based</text>
  <text x="712" y="727" font-family="system-ui" font-size="8" fill="#065f46">Hash deterministic</text>

  <rect x="860" y="682" width="185" height="60" rx="6" fill="#022c22" opacity="0.7"/>
  <text x="872" y="703" font-family="monospace" font-size="9" fill="#6ee7b7">Secure Boot</text>
  <text x="872" y="715" font-family="monospace" font-size="9" fill="#065f46">Signed kernel</text>
  <text x="872" y="727" font-family="system-ui" font-size="8" fill="#065f46">&amp; initramfs</text>

  <!-- Side decorative line -->
  <line x1="36" y1="130" x2="36" y2="755" stroke="#334155" stroke-width="1" stroke-dasharray="4,4"/>
</svg>
