<svg xmlns="http://www.w3.org/2000/svg" viewBox="0 0 1100 1200" width="1100" height="1200">
  <defs>
    <linearGradient id="bg" x1="0" y1="0" x2="0" y2="1">
      <stop offset="0%" stop-color="#000000"/>
      <stop offset="100%" stop-color="#0a0a0a"/>
    </linearGradient>
    <filter id="shadow"><feDropShadow dx="0" dy="2" stdDeviation="6" flood-color="#000" flood-opacity="0.5"/></filter>
    <pattern id="dot" width="20" height="20" patternUnits="userSpaceOnUse">
      <circle cx="10" cy="10" r="0.5" fill="#1a1a1a"/>
    </pattern>
    <marker id="arrow" viewBox="0 0 10 10" refX="5" refY="5" markerWidth="4" markerHeight="4" orient="auto">
      <path d="M 0 0 L 10 5 L 0 10 Z" fill="#1f1f1f"/>
    </marker>
  </defs>

  <rect width="1100" height="1200" fill="url(#bg)"/>
  <rect width="1100" height="1200" fill="url(#dot)" opacity="0.5"/>

  <!-- Title -->
  <text x="550" y="38" text-anchor="middle" font-family="system-ui, sans-serif" font-size="26" font-weight="800" fill="#ffffff" letter-spacing="3">SYSTEM ARCHITECTURE DEEP DIVE</text>
  <text x="550" y="58" text-anchor="middle" font-family="monospace" font-size="11" fill="#404040" letter-spacing="3">6-LAYER STACK · COMPONENT DIAGRAMS · DATA FLOWS · METRICS</text>
  <line x1="200" y1="68" x2="900" y2="68" stroke="#141414" stroke-width="1"/>

  <!-- ==================== LAYER 6: UI ==================== -->
  <rect x="30" y="82" width="1040" height="155" rx="6" fill="#0a0a0a" stroke="#141414" stroke-width="1" filter="url(#shadow)"/>
  <rect x="30" y="82" width="6" height="155" rx="3" fill="#3b82f6"/>
  <rect x="30" y="82" width="1040" height="26" rx="6" fill="#050505"/>
  <circle cx="52" cy="95" r="6" fill="#1e3a5f"/>
  <text x="52" y="99" text-anchor="middle" font-family="system-ui" font-size="8" fill="#60a5fa">UI</text>
  <text x="68" y="99" font-family="system-ui, sans-serif" font-size="12" font-weight="700" fill="#e5e5e5" letter-spacing="2">LAYER 6 — USER INTERFACE</text>
  <text x="330" y="99" font-family="monospace" font-size="9" fill="#404040">Presentation · HMI · Dashboards · Terminal · 5 Rust daemons</text>

  <!-- kairos-tui -->
  <rect x="46" y="118" width="180" height="106" rx="5" fill="#0d0d0d" stroke="#1a1a1a" stroke-width="1"/>
  <rect x="46" y="118" width="180" height="2" rx="1" fill="#3b82f6"/>
  <text x="58" y="138" font-family="monospace" font-size="11" font-weight="700" fill="#60a5fa">kairos-tui</text>
  <text x="58" y="152" font-family="system-ui" font-size="8" fill="#525252">DRM/KMS Terminal UI</text>
  <line x1="58" y1="160" x2="214" y2="160" stroke="#1a1a1a" stroke-width="1"/>
  <text x="58" y="174" font-family="monospace" font-size="8" fill="#404040">Multiplexer engine</text>
  <text x="58" y="186" font-family="monospace" font-size="8" fill="#404040">Gesture input driver</text>
  <text x="58" y="198" font-family="monospace" font-size="8" fill="#404040">/dev/fb0 + /dev/dri/*</text>
  <text x="58" y="210" font-family="monospace" font-size="8" fill="#404040">DRM atomic modeset</text>
  <text x="58" y="222" font-family="system-ui" font-size="7" fill="#333">AppArmor: kairos-tui</text>

  <!-- kairos-fb -->
  <rect x="240" y="118" width="180" height="106" rx="5" fill="#0d0d0d" stroke="#1a1a1a" stroke-width="1"/>
  <rect x="240" y="118" width="180" height="2" rx="1" fill="#06b6d4"/>
  <text x="252" y="138" font-family="monospace" font-size="11" font-weight="700" fill="#22d3ee">kairos-fb</text>
  <text x="252" y="152" font-family="system-ui" font-size="8" fill="#525252">Framebuffer Engine</text>
  <line x1="252" y1="160" x2="408" y2="160" stroke="#1a1a1a" stroke-width="1"/>
  <text x="252" y="174" font-family="monospace" font-size="8" fill="#404040">register_framebuffer</text>
  <text x="252" y="186" font-family="monospace" font-size="8" fill="#404040">vmalloc framebuffer</text>
  <text x="252" y="198" font-family="monospace" font-size="8" fill="#404040">fix.smem_len 16MB</text>
  <text x="252" y="210" font-family="monospace" font-size="8" fill="#404040">/dev/fb0 canvas</text>
  <text x="252" y="222" font-family="system-ui" font-size="7" fill="#333">fb_info → sysfs</text>

  <!-- kairos-web -->
  <rect x="434" y="118" width="180" height="106" rx="5" fill="#0d0d0d" stroke="#1a1a1a" stroke-width="1"/>
  <rect x="434" y="118" width="180" height="2" rx="1" fill="#8b5cf6"/>
  <text x="446" y="138" font-family="monospace" font-size="11" font-weight="700" fill="#a78bfa">kairos-web</text>
  <text x="446" y="152" font-family="system-ui" font-size="8" fill="#525252">Web Dashboard</text>
  <line x1="446" y1="160" x2="602" y2="160" stroke="#1a1a1a" stroke-width="1"/>
  <text x="446" y="174" font-family="monospace" font-size="8" fill="#404040">HTTP metrics endpoint</text>
  <text x="446" y="186" font-family="monospace" font-size="8" fill="#404040">Prometheus /metrics</text>
  <text x="446" y="198" font-family="monospace" font-size="8" fill="#404040">System health status</text>
  <text x="446" y="210" font-family="monospace" font-size="8" fill="#404040">OTA update status</text>
  <text x="446" y="222" font-family="system-ui" font-size="7" fill="#333">TCP :8080</text>

  <!-- kairos-bpf -->
  <rect x="628" y="118" width="180" height="106" rx="5" fill="#0d0d0d" stroke="#1a1a1a" stroke-width="1"/>
  <rect x="628" y="118" width="180" height="2" rx="1" fill="#10b981"/>
  <text x="640" y="138" font-family="monospace" font-size="11" font-weight="700" fill="#34d399">kairos-bpf</text>
  <text x="640" y="152" font-family="system-ui" font-size="8" fill="#525252">eBPF Telemetry Daemon</text>
  <line x1="640" y1="160" x2="796" y2="160" stroke="#1a1a1a" stroke-width="1"/>
  <text x="640" y="174" font-family="monospace" font-size="8" fill="#404040">execsnoop · filemon</text>
  <text x="640" y="186" font-family="monospace" font-size="8" fill="#404040">oomkill · tcptop</text>
  <text x="640" y="198" font-family="monospace" font-size="8" fill="#404040">schedlatency · anomaly</text>
  <text x="640" y="210" font-family="monospace" font-size="8" fill="#404040">libbpf-rs · BPF_PROG_TYPE</text>
  <text x="640" y="222" font-family="system-ui" font-size="7" fill="#333">AppArmor: kairos-bpf</text>

  <!-- kairos-mcp + MCP servers -->
  <rect x="822" y="118" width="235" height="106" rx="5" fill="#0d0d0d" stroke="#1a1a1a" stroke-width="1"/>
  <rect x="822" y="118" width="235" height="2" rx="1" fill="#ec4899"/>
  <text x="834" y="138" font-family="monospace" font-size="11" font-weight="700" fill="#f472b6">kairos-mcp</text>
  <text x="834" y="152" font-family="system-ui" font-size="8" fill="#525252">MCP Protocol Router</text>
  <line x1="834" y1="160" x2="1045" y2="160" stroke="#1a1a1a" stroke-width="1"/>
  <text x="834" y="174" font-family="monospace" font-size="8" fill="#404040">Service registry + transport</text>
  <text x="834" y="186" font-family="monospace" font-size="8" fill="#404040">Sub-agents (4):</text>
  <text x="840" y="198" font-family="monospace" font-size="7" fill="#333">filesystem · ollama</text>
  <text x="840" y="210" font-family="monospace" font-size="7" fill="#333">process · systemd</text>
  <text x="834" y="222" font-family="system-ui" font-size="7" fill="#333">JSON-RPC stdio transport</text>

  <!-- inter-layer arrow -->
  <polygon points="550,243 538,237 562,237" fill="#1f1f1f"/>

  <!-- ==================== LAYER 5: AI ==================== -->
  <rect x="30" y="252" width="1040" height="175" rx="6" fill="#0a0a0a" stroke="#141414" stroke-width="1" filter="url(#shadow)"/>
  <rect x="30" y="252" width="6" height="175" rx="3" fill="#ec4899"/>
  <rect x="30" y="252" width="1040" height="26" rx="6" fill="#050505"/>
  <circle cx="52" cy="265" r="6" fill="#4c0519"/>
  <text x="52" y="269" text-anchor="middle" font-family="system-ui" font-size="8" fill="#f472b6">AI</text>
  <text x="68" y="269" font-family="system-ui, sans-serif" font-size="12" font-weight="700" fill="#e5e5e5" letter-spacing="2">LAYER 5 — AI / REASONING</text>
  <text x="350" y="269" font-family="monospace" font-size="9" fill="#404040">8 Python asyncio JSON-RPC services · Unix socket IPC</text>

  <!-- AI row 1 -->
  <g>
    <rect x="46" y="290" width="115" height="62" rx="4" fill="#0d0d0d" stroke="#1a1a1a" stroke-width="1"/>
    <rect x="46" y="290" width="115" height="2" rx="1" fill="#ec4899"/>
    <text x="56" y="308" font-family="monospace" font-size="9" font-weight="700" fill="#fb7185">confidence</text>
    <text x="56" y="322" font-family="system-ui" font-size="8" fill="#525252">Confidence scoring</text>
    <text x="56" y="334" font-family="system-ui" font-size="8" fill="#525252">Model weighing</text>
    <text x="56" y="346" font-family="monospace" font-size="7" fill="#333">score() · calibrate()</text>

    <rect x="172" y="290" width="115" height="62" rx="4" fill="#0d0d0d" stroke="#1a1a1a" stroke-width="1"/>
    <rect x="172" y="290" width="115" height="2" rx="1" fill="#a78bfa"/>
    <text x="182" y="308" font-family="monospace" font-size="9" font-weight="700" fill="#a78bfa">context-mgr</text>
    <text x="182" y="322" font-family="system-ui" font-size="8" fill="#525252">Context window</text>
    <text x="182" y="334" font-family="system-ui" font-size="8" fill="#525252">Sliding window</text>
    <text x="182" y="346" font-family="monospace" font-size="7" fill="#333">truncate() · merge()</text>

    <rect x="298" y="290" width="115" height="62" rx="4" fill="#0d0d0d" stroke="#1a1a1a" stroke-width="1"/>
    <rect x="298" y="290" width="115" height="2" rx="1" fill="#f59e0b"/>
    <text x="308" y="308" font-family="monospace" font-size="9" font-weight="700" fill="#fbbf24">supervisor</text>
    <text x="308" y="322" font-family="system-ui" font-size="8" fill="#525252">System overseer</text>
    <text x="308" y="334" font-family="system-ui" font-size="8" fill="#525252">Policy enforcement</text>
    <text x="308" y="346" font-family="monospace" font-size="7" fill="#333">supervise() · escalate()</text>

    <rect x="424" y="290" width="115" height="62" rx="4" fill="#0d0d0d" stroke="#1a1a1a" stroke-width="1"/>
    <rect x="424" y="290" width="115" height="2" rx="1" fill="#3b82f6"/>
    <text x="434" y="308" font-family="monospace" font-size="9" font-weight="700" fill="#60a5fa">hermes-agent</text>
    <text x="434" y="322" font-family="system-ui" font-size="8" fill="#525252">Autonomous agent</text>
    <text x="434" y="334" font-family="system-ui" font-size="8" fill="#525252">Goal-driven</text>
    <text x="434" y="346" font-family="monospace" font-size="7" fill="#333">plan() · execute()</text>

    <rect x="550" y="290" width="115" height="62" rx="4" fill="#0d0d0d" stroke="#1a1a1a" stroke-width="1"/>
    <rect x="550" y="290" width="115" height="2" rx="1" fill="#10b981"/>
    <text x="560" y="308" font-family="monospace" font-size="9" font-weight="700" fill="#34d399">knowledge-graph</text>
    <text x="560" y="322" font-family="system-ui" font-size="8" fill="#525252">Entity resolution</text>
    <text x="560" y="334" font-family="system-ui" font-size="8" fill="#525252">Relationship store</text>
    <text x="560" y="346" font-family="monospace" font-size="7" fill="#333">query() · upsert()</text>

    <rect x="676" y="290" width="115" height="62" rx="4" fill="#0d0d0d" stroke="#1a1a1a" stroke-width="1"/>
    <rect x="676" y="290" width="115" height="2" rx="1" fill="#06b6d4"/>
    <text x="686" y="308" font-family="monospace" font-size="9" font-weight="700" fill="#22d3ee">skill-evolver</text>
    <text x="686" y="322" font-family="system-ui" font-size="8" fill="#525252">Skill evolution</text>
    <text x="686" y="334" font-family="system-ui" font-size="8" fill="#525252">Optimization</text>
    <text x="686" y="346" font-family="monospace" font-size="7" fill="#333">evolve() · prune()</text>

    <rect x="802" y="290" width="115" height="62" rx="4" fill="#0d0d0d" stroke="#1a1a1a" stroke-width="1"/>
    <rect x="802" y="290" width="115" height="2" rx="1" fill="#8b5cf6"/>
    <text x="812" y="308" font-family="monospace" font-size="9" font-weight="700" fill="#a78bfa">task-scheduler</text>
    <text x="812" y="322" font-family="system-ui" font-size="8" fill="#525252">DAG scheduler</text>
    <text x="812" y="334" font-family="system-ui" font-size="8" fill="#525252">Dependency graph</text>
    <text x="812" y="346" font-family="monospace" font-size="7" fill="#333">schedule() · deps()</text>

    <rect x="928" y="290" width="130" height="62" rx="4" fill="#0d0d0d" stroke="#1a1a1a" stroke-width="1"/>
    <rect x="928" y="290" width="130" height="2" rx="1" fill="#fbbf24"/>
    <text x="938" y="308" font-family="monospace" font-size="9" font-weight="700" fill="#fbbf24">telemetry-collector</text>
    <text x="938" y="322" font-family="system-ui" font-size="8" fill="#525252">Metrics collector</text>
    <text x="938" y="334" font-family="system-ui" font-size="8" fill="#525252">Prometheus export</text>
    <text x="938" y="346" font-family="monospace" font-size="7" fill="#333">collect() · export()</text>
  </g>

  <!-- AI data flow -->
  <rect x="46" y="362" width="1012" height="52" rx="5" fill="#050505" stroke="#141414" stroke-width="1"/>
  <rect x="46" y="362" width="1012" height="1" fill="#141414"/>
  <text x="60" y="382" font-family="monospace" font-size="9" font-weight="700" fill="#525252">DATA FLOW:</text>
  <text x="140" y="382" font-family="system-ui" font-size="9" fill="#404040">User request</text>
  <text x="240" y="382" font-family="system-ui" font-size="10" fill="#333">→</text>
  <text x="260" y="382" font-family="system-ui" font-size="9" fill="#404040">confidence score</text>
  <text x="370" y="382" font-family="system-ui" font-size="10" fill="#333">→</text>
  <text x="390" y="382" font-family="system-ui" font-size="9" fill="#404040">context enrichment</text>
  <text x="510" y="382" font-family="system-ui" font-size="10" fill="#333">→</text>
  <text x="530" y="382" font-family="system-ui" font-size="9" fill="#404040">knowledge graph query</text>
  <text x="670" y="382" font-family="system-ui" font-size="10" fill="#333">→</text>
  <text x="690" y="382" font-family="system-ui" font-size="9" fill="#404040">supervisor policy</text>
  <text x="800" y="382" font-family="system-ui" font-size="10" fill="#333">→</text>
  <text x="820" y="382" font-family="system-ui" font-size="9" fill="#404040">agent execution</text>

  <text x="60" y="400" font-family="monospace" font-size="8" fill="#333">All services communicate via Unix domain sockets (abstract namespace) · JSON-RPC 2.0 protocol</text>

  <polygon points="550,433 538,427 562,427" fill="#1f1f1f"/>

  <!-- ==================== LAYER 4: ORCHESTRATION ==================== -->
  <rect x="30" y="442" width="1040" height="155" rx="6" fill="#0a0a0a" stroke="#141414" stroke-width="1" filter="url(#shadow)"/>
  <rect x="30" y="442" width="6" height="155" rx="3" fill="#f59e0b"/>
  <rect x="30" y="442" width="1040" height="26" rx="6" fill="#050505"/>
  <circle cx="52" cy="455" r="6" fill="#422006"/>
  <text x="52" y="459" text-anchor="middle" font-family="system-ui" font-size="9" fill="#fbbf24">⚙</text>
  <text x="68" y="459" font-family="system-ui, sans-serif" font-size="12" font-weight="700" fill="#e5e5e5" letter-spacing="2">LAYER 4 — CORE ORCHESTRATION</text>
  <text x="360" y="459" font-family="monospace" font-size="9" fill="#404040">Rust daemons · system services · data · IPC</text>

  <g>
    <rect x="46" y="480" width="140" height="106" rx="5" fill="#0d0d0d" stroke="#1a1a1a" stroke-width="1"/>
    <rect x="46" y="480" width="140" height="2" rx="1" fill="#f59e0b"/>
    <text x="58" y="500" font-family="monospace" font-size="10" font-weight="700" fill="#fbbf24">orchestrator</text>
    <text x="58" y="514" font-family="system-ui" font-size="8" fill="#525252">DAG Task Scheduler</text>
    <line x1="58" y1="522" x2="174" y2="522" stroke="#1a1a1a" stroke-width="1"/>
    <text x="58" y="536" font-family="monospace" font-size="8" fill="#404040">Multi-agent deps</text>
    <text x="58" y="548" font-family="monospace" font-size="8" fill="#404040">Topological sort</text>
    <text x="58" y="560" font-family="monospace" font-size="8" fill="#404040">Worker pool</text>
    <text x="58" y="572" font-family="monospace" font-size="8" fill="#404040">Retry + timeout</text>
    <text x="58" y="584" font-family="system-ui" font-size="7" fill="#333">kairos_orchestrator</text>

    <rect x="200" y="480" width="140" height="106" rx="5" fill="#0d0d0d" stroke="#1a1a1a" stroke-width="1"/>
    <rect x="200" y="480" width="140" height="2" rx="1" fill="#06b6d4"/>
    <text x="212" y="500" font-family="monospace" font-size="10" font-weight="700" fill="#22d3ee">kairos-mesh</text>
    <text x="212" y="514" font-family="system-ui" font-size="8" fill="#525252">WireGuard VPN</text>
    <line x1="212" y1="522" x2="328" y2="522" stroke="#1a1a1a" stroke-width="1"/>
    <text x="212" y="536" font-family="monospace" font-size="8" fill="#404040">P2P overlay net</text>
    <text x="212" y="548" font-family="monospace" font-size="8" fill="#404040">Raft consensus</text>
    <text x="212" y="560" font-family="monospace" font-size="8" fill="#404040">NAT traversal</text>
    <text x="212" y="572" font-family="monospace" font-size="8" fill="#404040">Peer discovery</text>
    <text x="212" y="584" font-family="system-ui" font-size="7" fill="#333">AppArmor: kairos-mesh</text>

    <rect x="354" y="480" width="140" height="106" rx="5" fill="#0d0d0d" stroke="#1a1a1a" stroke-width="1"/>
    <rect x="354" y="480" width="140" height="2" rx="1" fill="#10b981"/>
    <text x="366" y="500" font-family="monospace" font-size="10" font-weight="700" fill="#34d399">kairos-db</text>
    <text x="366" y="514" font-family="system-ui" font-size="8" fill="#525252">Vector DB / SQLite</text>
    <line x1="366" y1="522" x2="482" y2="522" stroke="#1a1a1a" stroke-width="1"/>
    <text x="366" y="536" font-family="monospace" font-size="8" fill="#404040">Embedding store</text>
    <text x="366" y="548" font-family="monospace" font-size="8" fill="#404040">ANN search (HNSW)</text>
    <text x="366" y="560" font-family="monospace" font-size="8" fill="#404040">SQLite persistence</text>
    <text x="366" y="572" font-family="monospace" font-size="8" fill="#404040">Memory bus</text>
    <text x="366" y="584" font-family="system-ui" font-size="7" fill="#333">kairos_db lib</text>

    <rect x="508" y="480" width="140" height="106" rx="5" fill="#0d0d0d" stroke="#1a1a1a" stroke-width="1"/>
    <rect x="508" y="480" width="140" height="2" rx="1" fill="#8b5cf6"/>
    <text x="520" y="500" font-family="monospace" font-size="10" font-weight="700" fill="#a78bfa">kairos-apply</text>
    <text x="520" y="514" font-family="system-ui" font-size="8" fill="#525252">Declarative State</text>
    <line x1="520" y1="522" x2="636" y2="522" stroke="#1a1a1a" stroke-width="1"/>
    <text x="520" y="536" font-family="monospace" font-size="8" fill="#404040">GitOps-style apply</text>
    <text x="520" y="548" font-family="monospace" font-size="8" fill="#404040">YAML/TOML parser</text>
    <text x="520" y="560" font-family="monospace" font-size="8" fill="#404040">Diff + rollback</text>
    <text x="520" y="572" font-family="monospace" font-size="8" fill="#404040">similar · sha2</text>
    <text x="520" y="584" font-family="system-ui" font-size="7" fill="#333">kairos_apply lib</text>

    <rect x="662" y="480" width="140" height="106" rx="5" fill="#0d0d0d" stroke="#1a1a1a" stroke-width="1"/>
    <rect x="662" y="480" width="140" height="2" rx="1" fill="#ec4899"/>
    <text x="674" y="500" font-family="monospace" font-size="10" font-weight="700" fill="#f472b6">git-logger</text>
    <text x="674" y="514" font-family="system-ui" font-size="8" fill="#525252">/etc Versioning</text>
    <line x1="674" y1="522" x2="790" y2="522" stroke="#1a1a1a" stroke-width="1"/>
    <text x="674" y="536" font-family="monospace" font-size="8" fill="#404040">git-backed audit</text>
    <text x="674" y="548" font-family="monospace" font-size="8" fill="#404040">inotify watcher</text>
    <text x="674" y="560" font-family="monospace" font-size="8" fill="#404040">Auto-commit</text>
    <text x="674" y="572" font-family="monospace" font-size="8" fill="#404040">notify crate</text>
    <text x="674" y="584" font-family="system-ui" font-size="7" fill="#333">kairos_git_logger</text>

    <rect x="816" y="480" width="140" height="106" rx="5" fill="#0d0d0d" stroke="#1a1a1a" stroke-width="1"/>
    <rect x="816" y="480" width="140" height="2" rx="1" fill="#fbbf24"/>
    <text x="828" y="500" font-family="monospace" font-size="10" font-weight="700" fill="#fbbf24">kairos-llm</text>
    <text x="828" y="514" font-family="system-ui" font-size="8" fill="#525252">Local LLM Runtime</text>
    <line x1="828" y1="522" x2="944" y2="522" stroke="#1a1a1a" stroke-width="1"/>
    <text x="828" y="536" font-family="monospace" font-size="8" fill="#404040">Model quantizer</text>
    <text x="828" y="548" font-family="monospace" font-size="8" fill="#404040">Inference engine</text>
    <text x="828" y="560" font-family="monospace" font-size="8" fill="#404040">Prompt cache</text>
    <text x="828" y="572" font-family="monospace" font-size="8" fill="#404040">Token streaming</text>
    <text x="828" y="584" font-family="system-ui" font-size="7" fill="#333">kairos_llm lib</text>

    <rect x="970" y="480" width="88" height="106" rx="5" fill="#0d0d0d" stroke="#1a1a1a" stroke-width="1"/>
    <rect x="970" y="480" width="88" height="2" rx="1" fill="#22d3ee"/>
    <text x="982" y="500" font-family="monospace" font-size="8" font-weight="700" fill="#22d3ee">inference</text>
    <text x="982" y="512" font-family="monospace" font-size="8" font-weight="700" fill="#22d3ee">-hub</text>
    <text x="982" y="526" font-family="system-ui" font-size="7" fill="#525252">Speculative</text>
    <text x="982" y="538" font-family="system-ui" font-size="7" fill="#525252">inference</text>
    <line x1="982" y1="544" x2="1046" y2="544" stroke="#1a1a1a" stroke-width="1"/>
    <text x="982" y="556" font-family="monospace" font-size="7" fill="#404040">Pipeline exec</text>
    <text x="982" y="568" font-family="monospace" font-size="7" fill="#404040">Batch infer</text>
    <text x="982" y="580" font-family="system-ui" font-size="6" fill="#333">rand</text>
  </g>

  <polygon points="550,603 538,597 562,597" fill="#1f1f1f"/>

  <!-- ==================== LAYER 3: HARDWARE ==================== -->
  <rect x="30" y="612" width="1040" height="175" rx="6" fill="#0a0a0a" stroke="#141414" stroke-width="1" filter="url(#shadow)"/>
  <rect x="30" y="612" width="6" height="175" rx="3" fill="#06b6d4"/>
  <rect x="30" y="612" width="1040" height="26" rx="6" fill="#050505"/>
  <circle cx="52" cy="625" r="6" fill="#164e63"/>
  <text x="52" y="629" text-anchor="middle" font-family="system-ui" font-size="9" fill="#22d3ee">⚡</text>
  <text x="68" y="629" font-family="system-ui, sans-serif" font-size="12" font-weight="700" fill="#e5e5e5" letter-spacing="2">LAYER 3 — HARDWARE / SYSTEM CONTROL</text>
  <text x="390" y="629" font-family="monospace" font-size="9" fill="#404040">8 domain-specific Rust daemons</text>

  <g>
    <!-- recovery -->
    <rect x="46" y="650" width="120" height="62" rx="4" fill="#0d0d0d" stroke="#1a1a1a" stroke-width="1"/>
    <rect x="46" y="650" width="120" height="2" rx="1" fill="#22d3ee"/>
    <text x="58" y="668" font-family="monospace" font-size="10" font-weight="700" fill="#22d3ee">recovery</text>
    <text x="58" y="682" font-family="system-ui" font-size="8" fill="#525252">A/B Partitions</text>
    <text x="58" y="694" font-family="monospace" font-size="8" fill="#404040">dm-verity · OTA</text>
    <text x="58" y="706" font-family="system-ui" font-size="7" fill="#333">Recovery shell</text>

    <!-- avionics -->
    <rect x="178" y="650" width="120" height="62" rx="4" fill="#0d0d0d" stroke="#1a1a1a" stroke-width="1"/>
    <rect x="178" y="650" width="120" height="2" rx="1" fill="#f472b6"/>
    <text x="190" y="668" font-family="monospace" font-size="10" font-weight="700" fill="#f472b6">avionics</text>
    <text x="190" y="682" font-family="system-ui" font-size="8" fill="#525252">Bus Protocols</text>
    <text x="190" y="694" font-family="monospace" font-size="8" fill="#404040">ARINC 429 / CAN</text>
    <text x="190" y="706" font-family="system-ui" font-size="7" fill="#333">Telemetry parse</text>

    <!-- robotics -->
    <rect x="310" y="650" width="120" height="62" rx="4" fill="#0d0d0d" stroke="#1a1a1a" stroke-width="1"/>
    <rect x="310" y="650" width="120" height="2" rx="1" fill="#34d399"/>
    <text x="322" y="668" font-family="monospace" font-size="10" font-weight="700" fill="#34d399">robotics</text>
    <text x="322" y="682" font-family="system-ui" font-size="8" fill="#525252">Motor Control</text>
    <text x="322" y="694" font-family="monospace" font-size="8" fill="#404040">PID loops</text>
    <text x="322" y="706" font-family="system-ui" font-size="7" fill="#333">Actuator drivers</text>

    <!-- vision -->
    <rect x="442" y="650" width="120" height="62" rx="4" fill="#0d0d0d" stroke="#1a1a1a" stroke-width="1"/>
    <rect x="442" y="650" width="120" height="2" rx="1" fill="#60a5fa"/>
    <text x="454" y="668" font-family="monospace" font-size="10" font-weight="700" fill="#60a5fa">vision</text>
    <text x="454" y="682" font-family="system-ui" font-size="8" fill="#525252">Object Detection</text>
    <text x="454" y="694" font-family="monospace" font-size="8" fill="#404040">OpenCV pipeline</text>
    <text x="454" y="706" font-family="system-ui" font-size="7" fill="#333">YOLO inference</text>

    <!-- climate -->
    <rect x="574" y="650" width="120" height="62" rx="4" fill="#0d0d0d" stroke="#1a1a1a" stroke-width="1"/>
    <rect x="574" y="650" width="120" height="2" rx="1" fill="#fbbf24"/>
    <text x="586" y="668" font-family="monospace" font-size="10" font-weight="700" fill="#fbbf24">climate</text>
    <text x="586" y="682" font-family="system-ui" font-size="8" fill="#525252">Data Assimilation</text>
    <text x="586" y="694" font-family="monospace" font-size="8" fill="#404040">Weather models</text>
    <text x="586" y="706" font-family="system-ui" font-size="7" fill="#333">Ensemble Kalman</text>

    <!-- finance -->
    <rect x="706" y="650" width="120" height="62" rx="4" fill="#0d0d0d" stroke="#1a1a1a" stroke-width="1"/>
    <rect x="706" y="650" width="120" height="2" rx="1" fill="#a78bfa"/>
    <text x="718" y="668" font-family="monospace" font-size="10" font-weight="700" fill="#a78bfa">finance</text>
    <text x="718" y="682" font-family="system-ui" font-size="8" fill="#525252">Market Data</text>
    <text x="718" y="694" font-family="monospace" font-size="8" fill="#404040">Algo trading</text>
    <text x="718" y="706" font-family="system-ui" font-size="7" fill="#333">FIX protocol</text>

    <!-- quantum -->
    <rect x="838" y="650" width="120" height="62" rx="4" fill="#0d0d0d" stroke="#1a1a1a" stroke-width="1"/>
    <rect x="838" y="650" width="120" height="2" rx="1" fill="#10b981"/>
    <text x="850" y="668" font-family="monospace" font-size="10" font-weight="700" fill="#34d399">quantum</text>
    <text x="850" y="682" font-family="system-ui" font-size="8" fill="#525252">Gate Simulator</text>
    <text x="850" y="694" font-family="monospace" font-size="8" fill="#404040">Qubit states</text>
    <text x="850" y="706" font-family="system-ui" font-size="7" fill="#333">QASM transpile</text>

    <!-- bio -->
    <rect x="970" y="650" width="88" height="62" rx="4" fill="#0d0d0d" stroke="#1a1a1a" stroke-width="1"/>
    <rect x="970" y="650" width="88" height="2" rx="1" fill="#ec4899"/>
    <text x="982" y="668" font-family="monospace" font-size="10" font-weight="700" fill="#f472b6">bio</text>
    <text x="982" y="682" font-family="system-ui" font-size="8" fill="#525252">Genomics</text>
    <text x="982" y="694" font-family="monospace" font-size="8" fill="#404040">DNA/RNA seq</text>
    <text x="982" y="706" font-family="system-ui" font-size="7" fill="#333">BLAST align</text>
  </g>

  <!-- Architecture notes -->
  <rect x="46" y="724" width="1012" height="50" rx="5" fill="#050505" stroke="#141414" stroke-width="1"/>
  <rect x="46" y="724" width="1012" height="1" fill="#141414"/>
  <text x="60" y="744" font-family="monospace" font-size="9" font-weight="700" fill="#525252">ALL DAEMONS:</text>
  <text x="160" y="744" font-family="system-ui" font-size="9" fill="#404040">Tokio async runtime · Tracing (env-filter + fmt) · Clap CLI · Serde config (TOML)</text>
  <text x="60" y="762" font-family="monospace" font-size="9" font-weight="700" fill="#525252">IPC:</text>
  <text x="110" y="762" font-family="system-ui" font-size="9" fill="#404040">Unix domain sockets (abstract) · JSON-RPC 2.0 · Systemd service activation</text>

  <polygon points="550,775 538,769 562,769" fill="#1f1f1f"/>

  <!-- ==================== LAYER 2: KERNEL ==================== -->
  <rect x="30" y="784" width="1040" height="155" rx="6" fill="#0a0a0a" stroke="#141414" stroke-width="1" filter="url(#shadow)"/>
  <rect x="30" y="784" width="6" height="155" rx="3" fill="#8b5cf6"/>
  <rect x="30" y="784" width="1040" height="26" rx="6" fill="#050505"/>
  <circle cx="52" cy="797" r="6" fill="#1e1b4b"/>
  <text x="52" y="801" text-anchor="middle" font-family="system-ui" font-size="9" fill="#a78bfa">🐧</text>
  <text x="68" y="801" font-family="system-ui, sans-serif" font-size="12" font-weight="700" fill="#e5e5e5" letter-spacing="2">LAYER 2 — KERNEL MODULES</text>
  <text x="340" y="801" font-family="monospace" font-size="9" fill="#404040">Linux kernel C modules · sysfs · miscdevice · 7 modules</text>

  <g>
    <rect x="46" y="822" width="135" height="106" rx="5" fill="#0d0d0d" stroke="#1a1a1a" stroke-width="1"/>
    <rect x="46" y="822" width="135" height="2" rx="1" fill="#818cf8"/>
    <text x="58" y="842" font-family="monospace" font-size="10" font-weight="700" fill="#818cf8">kairos_dmverity</text>
    <text x="58" y="856" font-family="system-ui" font-size="8" fill="#525252">dm-verity sysfs mgr</text>
    <line x1="58" y1="864" x2="169" y2="864" stroke="#1a1a1a" stroke-width="1"/>
    <text x="58" y="878" font-family="monospace" font-size="8" fill="#404040">active_targets attr</text>
    <text x="58" y="890" font-family="monospace" font-size="8" fill="#404040">root_hash attr</text>
    <text x="58" y="902" font-family="monospace" font-size="8" fill="#404040">sysfs kobject</text>
    <text x="58" y="914" font-family="system-ui" font-size="7" fill="#333">kernel/dmverity/</text>

    <rect x="195" y="822" width="135" height="106" rx="5" fill="#0d0d0d" stroke="#1a1a1a" stroke-width="1"/>
    <rect x="195" y="822" width="135" height="2" rx="1" fill="#34d399"/>
    <text x="207" y="842" font-family="monospace" font-size="10" font-weight="700" fill="#34d399">kairos_tpm</text>
    <text x="207" y="856" font-family="system-ui" font-size="8" fill="#525252">TPM 2.0 PCR Binding</text>
    <line x1="207" y1="864" x2="318" y2="864" stroke="#1a1a1a" stroke-width="1"/>
    <text x="207" y="878" font-family="monospace" font-size="8" fill="#404040">pcr_read attr</text>
    <text x="207" y="890" font-family="monospace" font-size="8" fill="#404040">available attr</text>
    <text x="207" y="902" font-family="monospace" font-size="8" fill="#404040">sysfs group</text>
    <text x="207" y="914" font-family="system-ui" font-size="7" fill="#333">kernel/tpm/</text>

    <rect x="344" y="822" width="135" height="106" rx="5" fill="#0d0d0d" stroke="#1a1a1a" stroke-width="1"/>
    <rect x="344" y="822" width="135" height="2" rx="1" fill="#f472b6"/>
    <text x="356" y="842" font-family="monospace" font-size="10" font-weight="700" fill="#f472b6">kairos_edac</text>
    <text x="356" y="856" font-family="system-ui" font-size="8" fill="#525252">ECC Memory Handler</text>
    <line x1="356" y1="864" x2="467" y2="864" stroke="#1a1a1a" stroke-width="1"/>
    <text x="356" y="878" font-family="monospace" font-size="8" fill="#404040">CE counter attr</text>
    <text x="356" y="890" font-family="monospace" font-size="8" fill="#404040">UE counter attr</text>
    <text x="356" y="902" font-family="monospace" font-size="8" fill="#404040">retired_page attr</text>
    <text x="356" y="914" font-family="system-ui" font-size="7" fill="#333">kernel/edac/</text>

    <rect x="493" y="822" width="135" height="106" rx="5" fill="#0d0d0d" stroke="#1a1a1a" stroke-width="1"/>
    <rect x="493" y="822" width="135" height="2" rx="1" fill="#fbbf24"/>
    <text x="505" y="842" font-family="monospace" font-size="10" font-weight="700" fill="#fbbf24">kairos_ptp</text>
    <text x="505" y="856" font-family="system-ui" font-size="8" fill="#525252">PTP Hardware Clock</text>
    <line x1="505" y1="864" x2="616" y2="864" stroke="#1a1a1a" stroke-width="1"/>
    <text x="505" y="878" font-family="monospace" font-size="8" fill="#404040">adjfine callback</text>
    <text x="505" y="890" font-family="monospace" font-size="8" fill="#404040">gettime64 callback</text>
    <text x="505" y="902" font-family="monospace" font-size="8" fill="#404040">settime64 callback</text>
    <text x="505" y="914" font-family="system-ui" font-size="7" fill="#333">kernel/ptp/</text>

    <rect x="642" y="822" width="135" height="106" rx="5" fill="#0d0d0d" stroke="#1a1a1a" stroke-width="1"/>
    <rect x="642" y="822" width="135" height="2" rx="1" fill="#22d3ee"/>
    <text x="654" y="842" font-family="monospace" font-size="10" font-weight="700" fill="#22d3ee">kairos_fb</text>
    <text x="654" y="856" font-family="system-ui" font-size="8" fill="#525252">Framebuffer Canvas</text>
    <line x1="654" y1="864" x2="765" y2="864" stroke="#1a1a1a" stroke-width="1"/>
    <text x="654" y="878" font-family="monospace" font-size="8" fill="#404040">fb_info alloc</text>
    <text x="654" y="890" font-family="monospace" font-size="8" fill="#404040">vmalloc 16MB</text>
    <text x="654" y="902" font-family="monospace" font-size="8" fill="#404040">register_fb</text>
    <text x="654" y="914" font-family="system-ui" font-size="7" fill="#333">kernel/fb/</text>

    <rect x="791" y="822" width="135" height="106" rx="5" fill="#0d0d0d" stroke="#1a1a1a" stroke-width="1"/>
    <rect x="791" y="822" width="135" height="2" rx="1" fill="#60a5fa"/>
    <text x="803" y="842" font-family="monospace" font-size="10" font-weight="700" fill="#60a5fa">kairos_iommu</text>
    <text x="803" y="856" font-family="system-ui" font-size="8" fill="#525252">IOMMU DMA Isolation</text>
    <line x1="803" y1="864" x2="914" y2="864" stroke="#1a1a1a" stroke-width="1"/>
    <text x="803" y="878" font-family="monospace" font-size="8" fill="#404040">group_count attr</text>
    <text x="803" y="890" font-family="monospace" font-size="8" fill="#404040">enforced attr</text>
    <text x="803" y="902" font-family="monospace" font-size="8" fill="#404040">active attr</text>
    <text x="803" y="914" font-family="system-ui" font-size="7" fill="#333">kernel/iommu/</text>

    <rect x="940" y="822" width="118" height="106" rx="5" fill="#0d0d0d" stroke="#1a1a1a" stroke-width="1"/>
    <rect x="940" y="822" width="118" height="2" rx="1" fill="#ec4899"/>
    <text x="952" y="842" font-family="monospace" font-size="10" font-weight="700" fill="#f472b6">prochot</text>
    <text x="952" y="856" font-family="system-ui" font-size="8" fill="#525252">Thermal Throttle</text>
    <line x1="952" y1="864" x2="1046" y2="864" stroke="#1a1a1a" stroke-width="1"/>
    <text x="952" y="878" font-family="monospace" font-size="8" fill="#404040">trigger_count</text>
    <text x="952" y="890" font-family="monospace" font-size="8" fill="#404040">throttle_pct</text>
    <text x="952" y="902" font-family="monospace" font-size="8" fill="#404040">cpufreq_update</text>
    <text x="952" y="914" font-family="system-ui" font-size="7" fill="#333">kernel/prochot/</text>
  </g>

  <polygon points="550,945 538,939 562,939" fill="#1f1f1f"/>

  <!-- ==================== LAYER 1: SECURITY ==================== -->
  <rect x="30" y="954" width="1040" height="230" rx="6" fill="#0a0a0a" stroke="#141414" stroke-width="1" filter="url(#shadow)"/>
  <rect x="30" y="954" width="6" height="230" rx="3" fill="#10b981"/>
  <rect x="30" y="954" width="1040" height="26" rx="6" fill="#050505"/>
  <circle cx="52" cy="967" r="6" fill="#022c22"/>
  <text x="52" y="971" text-anchor="middle" font-family="system-ui" font-size="9" fill="#34d399">🔒</text>
  <text x="68" y="971" font-family="system-ui, sans-serif" font-size="12" font-weight="700" fill="#e5e5e5" letter-spacing="2">LAYER 1 — SECURITY &amp; DEVICE LIFECYCLE</text>
  <text x="390" y="971" font-family="monospace" font-size="9" fill="#404040">AppArmor · dm-verity · TPM · OTA · Secure Boot</text>

  <!-- Security cards row 1 -->
  <g>
    <rect x="46" y="992" width="160" height="70" rx="5" fill="#0d0d0d" stroke="#1a1a1a" stroke-width="1"/>
    <rect x="46" y="992" width="160" height="2" rx="1" fill="#34d399"/>
    <text x="58" y="1012" font-family="system-ui" font-size="10" font-weight="700" fill="#34d399">22 AppArmor Profiles</text>
    <text x="58" y="1028" font-family="system-ui" font-size="8" fill="#525252">Daemon-specific ACLs</text>
    <text x="58" y="1042" font-family="monospace" font-size="7" fill="#404040">bpf · recovery · mesh · ollama</text>
    <text x="58" y="1054" font-family="monospace" font-size="7" fill="#404040">tui · fb · finance · prochot</text>

    <rect x="220" y="992" width="160" height="70" rx="5" fill="#0d0d0d" stroke="#1a1a1a" stroke-width="1"/>
    <rect x="220" y="992" width="160" height="2" rx="1" fill="#22d3ee"/>
    <text x="232" y="1012" font-family="system-ui" font-size="10" font-weight="700" fill="#22d3ee">A/B Partition OTA</text>
    <text x="232" y="1028" font-family="system-ui" font-size="8" fill="#525252">Full auto-rollback</text>
    <text x="232" y="1042" font-family="monospace" font-size="7" fill="#404040">3 failed boots → fallback</text>
    <text x="232" y="1054" font-family="monospace" font-size="7" fill="#404040">Switch via grub-reboot</text>

    <rect x="394" y="992" width="160" height="70" rx="5" fill="#0d0d0d" stroke="#1a1a1a" stroke-width="1"/>
    <rect x="394" y="992" width="160" height="2" rx="1" fill="#60a5fa"/>
    <text x="406" y="1012" font-family="system-ui" font-size="10" font-weight="700" fill="#60a5fa">dm-verity Integrity</text>
    <text x="406" y="1028" font-family="system-ui" font-size="8" fill="#525252">Block-level hash tree</text>
    <text x="406" y="1042" font-family="monospace" font-size="7" fill="#404040">veritysetup verify</text>
    <text x="406" y="1054" font-family="monospace" font-size="7" fill="#404040">Root hash signing</text>

    <rect x="568" y="992" width="160" height="70" rx="5" fill="#0d0d0d" stroke="#1a1a1a" stroke-width="1"/>
    <rect x="568" y="992" width="160" height="2" rx="1" fill="#f472b6"/>
    <text x="580" y="1012" font-family="system-ui" font-size="10" font-weight="700" fill="#f472b6">GPG-Signed Updates</text>
    <text x="580" y="1028" font-family="system-ui" font-size="8" fill="#525252">Manifest + image sigs</text>
    <text x="580" y="1042" font-family="monospace" font-size="7" fill="#404040">gpgv verification</text>
    <text x="580" y="1054" font-family="monospace" font-size="7" fill="#404040">384-bit ECDSA</text>

    <rect x="742" y="992" width="160" height="70" rx="5" fill="#0d0d0d" stroke="#1a1a1a" stroke-width="1"/>
    <rect x="742" y="992" width="160" height="2" rx="1" fill="#fbbf24"/>
    <text x="754" y="1012" font-family="system-ui" font-size="10" font-weight="700" fill="#fbbf24">Staged Rollout</text>
    <text x="754" y="1028" font-family="system-ui" font-size="8" fill="#525252">Canary-based deployment</text>
    <text x="754" y="1042" font-family="monospace" font-size="7" fill="#404040">Hash-deterministic groups</text>
    <text x="754" y="1054" font-family="monospace" font-size="7" fill="#404040">10% → 25% → 100%</text>

    <rect x="916" y="992" width="142" height="70" rx="5" fill="#0d0d0d" stroke="#1a1a1a" stroke-width="1"/>
    <rect x="916" y="992" width="142" height="2" rx="1" fill="#8b5cf6"/>
    <text x="928" y="1012" font-family="system-ui" font-size="10" font-weight="700" fill="#a78bfa">Secure Boot</text>
    <text x="928" y="1028" font-family="system-ui" font-size="8" fill="#525252">Signed kernel + init</text>
    <text x="928" y="1042" font-family="monospace" font-size="7" fill="#404040">deny(unsafe_code)</text>
    <text x="928" y="1054" font-family="monospace" font-size="7" fill="#404040">SBOM auditing</text>
  </g>

  <!-- ===== OTA FLOW SECTION ===== -->
  <rect x="46" y="1074" width="1012" height="52" rx="5" fill="#050505" stroke="#141414" stroke-width="1"/>
  <rect x="46" y="1074" width="1012" height="1" fill="#141414"/>

  <text x="60" y="1094" font-family="monospace" font-size="9" font-weight="700" fill="#525252">OTA FLOW:</text>

  <rect x="135" y="1082" width="80" height="18" rx="3" fill="#141414" stroke="#262626" stroke-width="1"/>
  <text x="175" y="1095" text-anchor="middle" font-family="system-ui" font-size="8" fill="#737373">manifest</text>
  <text x="220" y="1095" font-family="system-ui" font-size="10" fill="#333">→</text>

  <rect x="235" y="1082" width="80" height="18" rx="3" fill="#141414" stroke="#262626" stroke-width="1"/>
  <text x="275" y="1095" text-anchor="middle" font-family="system-ui" font-size="8" fill="#737373">download</text>
  <text x="320" y="1095" font-family="system-ui" font-size="10" fill="#333">→</text>

  <rect x="335" y="1082" width="65" height="18" rx="3" fill="#141414" stroke="#262626" stroke-width="1"/>
  <text x="367" y="1095" text-anchor="middle" font-family="system-ui" font-size="8" fill="#737373">SHA256</text>
  <text x="405" y="1095" font-family="system-ui" font-size="10" fill="#333">→</text>

  <rect x="420" y="1082" width="65" height="18" rx="3" fill="#141414" stroke="#262626" stroke-width="1"/>
  <text x="452" y="1095" text-anchor="middle" font-family="system-ui" font-size="8" fill="#737373">GPG sig</text>
  <text x="490" y="1095" font-family="system-ui" font-size="10" fill="#333">→</text>

  <rect x="505" y="1082" width="65" height="18" rx="3" fill="#141414" stroke="#262626" stroke-width="1"/>
  <text x="537" y="1095" text-anchor="middle" font-family="system-ui" font-size="8" fill="#737373">dd img</text>
  <text x="575" y="1095" font-family="system-ui" font-size="10" fill="#333">→</text>

  <rect x="590" y="1082" width="80" height="18" rx="3" fill="#141414" stroke="#262626" stroke-width="1"/>
  <text x="630" y="1095" text-anchor="middle" font-family="system-ui" font-size="8" fill="#737373">verity check</text>
  <text x="675" y="1095" font-family="system-ui" font-size="10" fill="#333">→</text>

  <rect x="690" y="1082" width="65" height="18" rx="3" fill="#141414" stroke="#262626" stroke-width="1"/>
  <text x="722" y="1095" text-anchor="middle" font-family="system-ui" font-size="8" fill="#737373">switch</text>
  <text x="760" y="1095" font-family="system-ui" font-size="10" fill="#333">→</text>

  <rect x="775" y="1082" width="55" height="18" rx="3" fill="#141414" stroke="#262626" stroke-width="1"/>
  <text x="802" y="1095" text-anchor="middle" font-family="system-ui" font-size="8" fill="#737373">reboot</text>

  <!-- Timer info -->
  <text x="870" y="1095" font-family="monospace" font-size="8" fill="#404040">|</text>
  <text x="885" y="1095" font-family="system-ui" font-size="8" fill="#404040">Daily timer · Randomized delay · Auto on success</text>

  <!-- ===== SCHEDULED OPERATIONS ===== -->
  <text x="60" y="1118" font-family="monospace" font-size="9" font-weight="700" fill="#525252">SCHEDULED:</text>

  <rect x="145" y="1106" width="95" height="18" rx="3" fill="#141414" stroke="#262626" stroke-width="1"/>
  <text x="192" y="1119" text-anchor="middle" font-family="system-ui" font-size="8" fill="#737373">Systemd timer</text>
  <text x="245" y="1119" font-family="system-ui" font-size="10" fill="#333">→</text>

  <rect x="260" y="1106" width="80" height="18" rx="3" fill="#141414" stroke="#262626" stroke-width="1"/>
  <text x="300" y="1119" text-anchor="middle" font-family="system-ui" font-size="8" fill="#737373">check-update</text>
  <text x="345" y="1119" font-family="system-ui" font-size="10" fill="#333">→</text>

  <rect x="360" y="1106" width="80" height="18" rx="3" fill="#141414" stroke="#262626" stroke-width="1"/>
  <text x="400" y="1119" text-anchor="middle" font-family="system-ui" font-size="8" fill="#737373">eligible?</text>
  <text x="445" y="1119" font-family="system-ui" font-size="10" fill="#333">→</text>

  <rect x="460" y="1106" width="80" height="18" rx="3" fill="#141414" stroke="#262626" stroke-width="1"/>
  <text x="500" y="1119" text-anchor="middle" font-family="system-ui" font-size="8" fill="#737373">auto-apply</text>
  <text x="545" y="1119" font-family="system-ui" font-size="10" fill="#333">→</text>

  <rect x="560" y="1106" width="60" height="18" rx="3" fill="#141414" stroke="#262626" stroke-width="1"/>
  <text x="590" y="1119" text-anchor="middle" font-family="system-ui" font-size="8" fill="#737373">notify</text>

  <text x="635" y="1119" font-family="monospace" font-size="8" fill="#404040">|</text>
  <text x="650" y="1119" font-family="system-ui" font-size="8" fill="#404040">kairos-update-check.service + .timer</text>
</svg>
