<svg xmlns="http://www.w3.org/2000/svg" viewBox="0 0 1100 560" width="1100" height="560">
  <defs>
    <linearGradient id="bg" x1="0" y1="0" x2="0" y2="1">
      <stop offset="0%" stop-color="#000000"/>
      <stop offset="100%" stop-color="#0a0a0a"/>
    </linearGradient>
    <filter id="shadow"><feDropShadow dx="0" dy="2" stdDeviation="6" flood-color="#000" flood-opacity="0.5"/></filter>
  </defs>

  <rect width="1100" height="560" fill="url(#bg)"/>

  <text x="550" y="34" text-anchor="middle" font-family="system-ui, sans-serif" font-size="20" font-weight="800" fill="#ffffff" letter-spacing="2">KEY CAPABILITIES BREAKDOWN</text>
  <text x="550" y="52" font-family="monospace" font-size="10" fill="#404040" letter-spacing="3">580+ FILES · 31,238 LINES · 6 LAYERS · FULL INTEGRATION</text>
  <line x1="300" y1="60" x2="800" y2="60" stroke="#141414" stroke-width="1"/>

  <!-- ===== ROW 1 ===== -->
  <!-- Card 1: OTA (wider, more detailed) -->
  <rect x="30" y="74" width="340" height="225" rx="8" fill="#0a0a0a" stroke="#141414" stroke-width="1" filter="url(#shadow)"/>
  <rect x="30" y="74" width="340" height="3" rx="1.5" fill="#3b82f6"/>
  <rect x="30" y="74" width="110" height="24" rx="4" fill="#1e3a5f" opacity="0.6"/>
  <text x="85" y="90" text-anchor="middle" font-family="system-ui" font-size="10" font-weight="700" fill="#60a5fa">OVER-THE-AIR</text>

  <g>
    <!-- sub-section: manifest -->
    <rect x="46" y="110" width="145" height="72" rx="4" fill="#0d0d0d" stroke="#1a1a1a" stroke-width="1"/>
    <rect x="46" y="110" width="145" height="2" rx="1" fill="#3b82f6"/>
    <text x="56" y="128" font-family="system-ui" font-size="9" font-weight="700" fill="#60a5fa">Manifest</text>
    <text x="56" y="142" font-family="monospace" font-size="8" fill="#525252">format_version: 1</text>
    <text x="56" y="154" font-family="monospace" font-size="8" fill="#525252">release_id · version</text>
    <text x="56" y="166" font-family="monospace" font-size="8" fill="#525252">channel · staging_pct</text>
    <text x="56" y="178" font-family="system-ui" font-size="7" fill="#333">GPG-signed JSON</text>

    <rect x="204" y="110" width="152" height="72" rx="4" fill="#0d0d0d" stroke="#1a1a1a" stroke-width="1"/>
    <rect x="204" y="110" width="152" height="2" rx="1" fill="#06b6d4"/>
    <text x="214" y="128" font-family="system-ui" font-size="9" font-weight="700" fill="#22d3ee">Download</text>
    <text x="214" y="142" font-family="monospace" font-size="8" fill="#525252">HTTPS + SHA256 verify</text>
    <text x="214" y="154" font-family="monospace" font-size="8" fill="#525252">reqwest rustls-tls</text>
    <text x="214" y="166" font-family="monospace" font-size="8" fill="#525252">ImageEntry JSON</text>
    <text x="214" y="178" font-family="system-ui" font-size="7" fill="#333">Streaming to file</text>

    <!-- sub-section: delta + staging -->
    <rect x="46" y="192" width="145" height="72" rx="4" fill="#0d0d0d" stroke="#1a1a1a" stroke-width="1"/>
    <rect x="46" y="192" width="145" height="2" rx="1" fill="#10b981"/>
    <text x="56" y="210" font-family="system-ui" font-size="9" font-weight="700" fill="#34d399">Delta Updates</text>
    <text x="56" y="224" font-family="monospace" font-size="8" fill="#525252">bspatch diff</text>
    <text x="56" y="236" font-family="monospace" font-size="8" fill="#525252">from → to version</text>
    <text x="56" y="248" font-family="monospace" font-size="8" fill="#525252">SHA256 per delta</text>
    <text x="56" y="260" font-family="system-ui" font-size="7" fill="#333">Minimal bandwidth</text>

    <rect x="204" y="192" width="152" height="72" rx="4" fill="#0d0d0d" stroke="#1a1a1a" stroke-width="1"/>
    <rect x="204" y="192" width="152" height="2" rx="1" fill="#f59e0b"/>
    <text x="214" y="210" font-family="system-ui" font-size="9" font-weight="700" fill="#fbbf24">Staged Rollout</text>
    <text x="214" y="224" font-family="monospace" font-size="8" fill="#525252">SHA256(device_id) % 100</text>
    <text x="214" y="236" font-family="monospace" font-size="8" fill="#525252">staging_percentage</text>
    <text x="214" y="248" font-family="monospace" font-size="8" fill="#525252">Deterministic groups</text>
    <text x="214" y="260" font-family="system-ui" font-size="7" fill="#333">Canary deployment</text>

    <!-- key info -->
    <rect x="46" y="274" width="310" height="18" rx="3" fill="#050505" stroke="#141414" stroke-width="1"/>
    <text x="56" y="287" font-family="monospace" font-size="8" fill="#404040">Systemd timer: kairos-update-check.timer (daily, randomized delay)</text>
  </g>

  <!-- Card 2: Security -->
  <rect x="385" y="74" width="330" height="225" rx="8" fill="#0a0a0a" stroke="#141414" stroke-width="1" filter="url(#shadow)"/>
  <rect x="385" y="74" width="330" height="3" rx="1.5" fill="#10b981"/>
  <rect x="385" y="74" width="100" height="24" rx="4" fill="#022c22" opacity="0.6"/>
  <text x="435" y="90" text-anchor="middle" font-family="system-ui" font-size="10" font-weight="700" fill="#34d399">SECURITY</text>

  <g>
    <rect x="401" y="110" width="145" height="50" rx="4" fill="#0d0d0d" stroke="#1a1a1a" stroke-width="1"/>
    <rect x="401" y="110" width="145" height="2" rx="1" fill="#34d399"/>
    <text x="411" y="128" font-family="system-ui" font-size="9" font-weight="700" fill="#34d399">AppArmor</text>
    <text x="411" y="142" font-family="monospace" font-size="8" fill="#525252">22 daemon-specific profiles</text>
    <text x="411" y="155" font-family="monospace" font-size="7" fill="#404040">bpf: bpf, perf_event_open</text>

    <rect x="558" y="110" width="143" height="50" rx="4" fill="#0d0d0d" stroke="#1a1a1a" stroke-width="1"/>
    <rect x="558" y="110" width="143" height="2" rx="1" fill="#22d3ee"/>
    <text x="568" y="128" font-family="system-ui" font-size="9" font-weight="700" fill="#22d3ee">dm-verity</text>
    <text x="568" y="142" font-family="monospace" font-size="8" fill="#525252">Block-level integrity</text>
    <text x="568" y="155" font-family="monospace" font-size="7" fill="#404040">veritysetup verify</text>

    <rect x="401" y="170" width="145" height="50" rx="4" fill="#0d0d0d" stroke="#1a1a1a" stroke-width="1"/>
    <rect x="401" y="170" width="145" height="2" rx="1" fill="#60a5fa"/>
    <text x="411" y="188" font-family="system-ui" font-size="9" font-weight="700" fill="#60a5fa">TPM 2.0</text>
    <text x="411" y="202" font-family="monospace" font-size="8" fill="#525252">PCR binding, key sealing</text>
    <text x="411" y="215" font-family="monospace" font-size="7" fill="#404040">sysfs PCR read</text>

    <rect x="558" y="170" width="143" height="50" rx="4" fill="#0d0d0d" stroke="#1a1a1a" stroke-width="1"/>
    <rect x="558" y="170" width="143" height="2" rx="1" fill="#8b5cf6"/>
    <text x="568" y="188" font-family="system-ui" font-size="9" font-weight="700" fill="#a78bfa">Secure Boot</text>
    <text x="568" y="202" font-family="monospace" font-size="8" fill="#525252">Signed kernel + initramfs</text>
    <text x="568" y="215" font-family="monospace" font-size="7" fill="#404040">deny(unsafe_code)</text>

    <rect x="401" y="230" width="300" height="36" rx="4" fill="#0d0d0d" stroke="#1a1a1a" stroke-width="1"/>
    <rect x="401" y="230" width="300" height="2" rx="1" fill="#f472b6"/>
    <text x="411" y="248" font-family="system-ui" font-size="9" font-weight="700" fill="#f472b6">CI Security</text>
    <text x="411" y="261" font-family="monospace" font-size="8" fill="#525252">Trivy SAST · cargo-audit · gitleaks · SBOM</text>

    <rect x="401" y="274" width="300" height="18" rx="3" fill="#050505" stroke="#141414" stroke-width="1"/>
    <text x="411" y="287" font-family="monospace" font-size="8" fill="#404040">No arbitrary code execution in Rust (#![deny(unsafe_code)])</text>
  </g>

  <!-- Card 3: AI -->
  <rect x="730" y="74" width="340" height="225" rx="8" fill="#0a0a0a" stroke="#141414" stroke-width="1" filter="url(#shadow)"/>
  <rect x="730" y="74" width="340" height="3" rx="1.5" fill="#f43f5e"/>
  <rect x="730" y="74" width="100" height="24" rx="4" fill="#4c0519" opacity="0.6"/>
  <text x="780" y="90" text-anchor="middle" font-family="system-ui" font-size="10" font-weight="700" fill="#fb7185">AI REASONING</text>

  <g>
    <!-- service grid -->
    <rect x="746" y="110" width="100" height="40" rx="4" fill="#0d0d0d" stroke="#1a1a1a" stroke-width="1"/>
    <rect x="746" y="110" width="100" height="2" rx="1" fill="#f43f5e"/>
    <text x="756" y="128" font-family="monospace" font-size="8" font-weight="700" fill="#fb7185">confidence</text>
    <text x="756" y="142" font-family="system-ui" font-size="7" fill="#525252">Scoring engine</text>

    <rect x="856" y="110" width="100" height="40" rx="4" fill="#0d0d0d" stroke="#1a1a1a" stroke-width="1"/>
    <rect x="856" y="110" width="100" height="2" rx="1" fill="#a78bfa"/>
    <text x="866" y="128" font-family="monospace" font-size="8" font-weight="700" fill="#a78bfa">context-mgr</text>
    <text x="866" y="142" font-family="system-ui" font-size="7" fill="#525252">Context window</text>

    <rect x="966" y="110" width="90" height="40" rx="4" fill="#0d0d0d" stroke="#1a1a1a" stroke-width="1"/>
    <rect x="966" y="110" width="90" height="2" rx="1" fill="#f59e0b"/>
    <text x="976" y="128" font-family="monospace" font-size="8" font-weight="700" fill="#fbbf24">supervisor</text>
    <text x="976" y="142" font-family="system-ui" font-size="7" fill="#525252">System overseer</text>

    <rect x="746" y="158" width="100" height="40" rx="4" fill="#0d0d0d" stroke="#1a1a1a" stroke-width="1"/>
    <rect x="746" y="158" width="100" height="2" rx="1" fill="#3b82f6"/>
    <text x="756" y="176" font-family="monospace" font-size="8" font-weight="700" fill="#60a5fa">hermes</text>
    <text x="756" y="190" font-family="system-ui" font-size="7" fill="#525252">Autonomous agent</text>

    <rect x="856" y="158" width="100" height="40" rx="4" fill="#0d0d0d" stroke="#1a1a1a" stroke-width="1"/>
    <rect x="856" y="158" width="100" height="2" rx="1" fill="#10b981"/>
    <text x="866" y="176" font-family="monospace" font-size="8" font-weight="700" fill="#34d399">knowledge-graph</text>
    <text x="866" y="190" font-family="system-ui" font-size="7" fill="#525252">Relationship store</text>

    <rect x="966" y="158" width="90" height="40" rx="4" fill="#0d0d0d" stroke="#1a1a1a" stroke-width="1"/>
    <rect x="966" y="158" width="90" height="2" rx="1" fill="#06b6d4"/>
    <text x="976" y="176" font-family="monospace" font-size="8" font-weight="700" fill="#22d3ee">skill-evolver</text>
    <text x="976" y="190" font-family="system-ui" font-size="7" fill="#525252">Skill evolution</text>

    <rect x="746" y="206" width="158" height="40" rx="4" fill="#0d0d0d" stroke="#1a1a1a" stroke-width="1"/>
    <rect x="746" y="206" width="158" height="2" rx="1" fill="#8b5cf6"/>
    <text x="756" y="224" font-family="monospace" font-size="8" font-weight="700" fill="#a78bfa">task-scheduler</text>
    <text x="756" y="238" font-family="system-ui" font-size="7" fill="#525252">DAG workflow scheduler</text>

    <rect x="914" y="206" width="142" height="40" rx="4" fill="#0d0d0d" stroke="#1a1a1a" stroke-width="1"/>
    <rect x="914" y="206" width="142" height="2" rx="1" fill="#fbbf24"/>
    <text x="924" y="224" font-family="monospace" font-size="8" font-weight="700" fill="#fbbf24">telemetry-collector</text>
    <text x="924" y="238" font-family="system-ui" font-size="7" fill="#525252">Metrics exporter</text>

    <rect x="746" y="256" width="310" height="18" rx="3" fill="#050505" stroke="#141414" stroke-width="1"/>
    <text x="756" y="269" font-family="monospace" font-size="8" fill="#404040">Python 3.12+ asyncio · JSON-RPC · Unix sockets · 56 tests</text>

    <rect x="746" y="278" width="310" height="14" rx="3" fill="#050505" stroke="#141414" stroke-width="1"/>
    <text x="756" y="289" font-family="monospace" font-size="7" fill="#333">Systemd: kairos-confidence.service · context-mgr.service · supervisor.service ...</text>
  </g>

  <!-- ===== ROW 2 ===== -->
  <!-- Card 4: Rust Daemons -->
  <rect x="30" y="312" width="340" height="230" rx="8" fill="#0a0a0a" stroke="#141414" stroke-width="1" filter="url(#shadow)"/>
  <rect x="30" y="312" width="340" height="3" rx="1.5" fill="#8b5cf6"/>
  <rect x="30" y="312" width="120" height="24" rx="4" fill="#2e1065" opacity="0.6"/>
  <text x="90" y="328" text-anchor="middle" font-family="system-ui" font-size="10" font-weight="700" fill="#a78bfa">RUST DAEMONS</text>

  <g>
    <rect x="46" y="348" width="100" height="34" rx="4" fill="#0d0d0d" stroke="#1a1a1a" stroke-width="1"/>
    <rect x="46" y="348" width="100" height="2" rx="1" fill="#818cf8"/>
    <text x="56" y="366" font-family="monospace" font-size="9" font-weight="700" fill="#818cf8">kairos-bpf</text>
    <text x="56" y="378" font-family="system-ui" font-size="7" fill="#404040">eBPF telemetry</text>

    <rect x="156" y="348" width="100" height="34" rx="4" fill="#0d0d0d" stroke="#1a1a1a" stroke-width="1"/>
    <rect x="156" y="348" width="100" height="2" rx="1" fill="#a78bfa"/>
    <text x="166" y="366" font-family="monospace" font-size="9" font-weight="700" fill="#a78bfa">kairos-mcp</text>
    <text x="166" y="378" font-family="system-ui" font-size="7" fill="#404040">Protocol router</text>

    <rect x="266" y="348" width="90" height="34" rx="4" fill="#0d0d0d" stroke="#1a1a1a" stroke-width="1"/>
    <rect x="266" y="348" width="90" height="2" rx="1" fill="#f472b6"/>
    <text x="276" y="366" font-family="monospace" font-size="9" font-weight="700" fill="#f472b6">kairos-apply</text>
    <text x="276" y="378" font-family="system-ui" font-size="7" fill="#404040">Config state</text>

    <rect x="46" y="392" width="100" height="34" rx="4" fill="#0d0d0d" stroke="#1a1a1a" stroke-width="1"/>
    <rect x="46" y="392" width="100" height="2" rx="1" fill="#22d3ee"/>
    <text x="56" y="410" font-family="monospace" font-size="9" font-weight="700" fill="#22d3ee">git-logger</text>
    <text x="56" y="422" font-family="system-ui" font-size="7" fill="#404040">/etc versioning</text>

    <rect x="156" y="392" width="100" height="34" rx="4" fill="#0d0d0d" stroke="#1a1a1a" stroke-width="1"/>
    <rect x="156" y="392" width="100" height="2" rx="1" fill="#34d399"/>
    <text x="166" y="410" font-family="monospace" font-size="9" font-weight="700" fill="#34d399">inference-hub</text>
    <text x="166" y="422" font-family="system-ui" font-size="7" fill="#404040">Inference pipe</text>

    <rect x="266" y="392" width="90" height="34" rx="4" fill="#0d0d0d" stroke="#1a1a1a" stroke-width="1"/>
    <rect x="266" y="392" width="90" height="2" rx="1" fill="#3b82f6"/>
    <text x="276" y="410" font-family="monospace" font-size="9" font-weight="700" fill="#3b82f6">recovery</text>
    <text x="276" y="422" font-family="system-ui" font-size="7" fill="#404040">A/B + OTA</text>

    <rect x="46" y="436" width="100" height="34" rx="4" fill="#0d0d0d" stroke="#1a1a1a" stroke-width="1"/>
    <rect x="46" y="436" width="100" height="2" rx="1" fill="#f59e0b"/>
    <text x="56" y="454" font-family="monospace" font-size="9" font-weight="700" fill="#fbbf24">kairos-tui</text>
    <text x="56" y="466" font-family="system-ui" font-size="7" fill="#404040">DRM/KMS terminal</text>

    <rect x="156" y="436" width="100" height="34" rx="4" fill="#0d0d0d" stroke="#1a1a1a" stroke-width="1"/>
    <rect x="156" y="436" width="100" height="2" rx="1" fill="#06b6d4"/>
    <text x="166" y="454" font-family="monospace" font-size="9" font-weight="700" fill="#06b6d4">orchestrator</text>
    <text x="166" y="466" font-family="system-ui" font-size="7" fill="#404040">DAG scheduler</text>

    <rect x="266" y="436" width="90" height="34" rx="4" fill="#0d0d0d" stroke="#1a1a1a" stroke-width="1"/>
    <rect x="266" y="436" width="90" height="2" rx="1" fill="#10b981"/>
    <text x="276" y="454" font-family="monospace" font-size="9" font-weight="700" fill="#10b981">kairos-db</text>
    <text x="276" y="466" font-family="system-ui" font-size="7" fill="#404040">Vector / SQLite</text>

    <rect x="46" y="480" width="100" height="34" rx="4" fill="#0d0d0d" stroke="#1a1a1a" stroke-width="1"/>
    <rect x="46" y="480" width="100" height="2" rx="1" fill="#ec4899"/>
    <text x="56" y="498" font-family="monospace" font-size="9" font-weight="700" fill="#f472b6">kairos-mesh</text>
    <text x="56" y="510" font-family="system-ui" font-size="7" fill="#404040">WireGuard VPN</text>

    <rect x="156" y="480" width="100" height="34" rx="4" fill="#0d0d0d" stroke="#1a1a1a" stroke-width="1"/>
    <rect x="156" y="480" width="100" height="2" rx="1" fill="#a78bfa"/>
    <text x="166" y="498" font-family="monospace" font-size="9" font-weight="700" fill="#a78bfa">kairos-llm</text>
    <text x="166" y="510" font-family="system-ui" font-size="7" fill="#404040">Local LLM runtime</text>

    <rect x="266" y="480" width="90" height="34" rx="4" fill="#0d0d0d" stroke="#1a1a1a" stroke-width="1"/>
    <rect x="266" y="480" width="90" height="2" rx="1" fill="#fbbf24"/>
    <text x="276" y="498" font-family="monospace" font-size="9" font-weight="700" fill="#fbbf24">kairos-fb</text>
    <text x="276" y="510" font-family="system-ui" font-size="7" fill="#404040">Framebuffer</text>

    <rect x="46" y="522" width="310" height="14" rx="3" fill="#050505" stroke="#141414" stroke-width="1"/>
    <text x="56" y="533" font-family="monospace" font-size="7" fill="#333">+10 domain daemons: avionics · robotics · vision · climate · finance · quantum · bio · build (20 total)</text>
  </g>

  <!-- Card 5: Kernel Modules -->
  <rect x="385" y="312" width="330" height="230" rx="8" fill="#0a0a0a" stroke="#141414" stroke-width="1" filter="url(#shadow)"/>
  <rect x="385" y="312" width="330" height="3" rx="1.5" fill="#06b6d4"/>
  <rect x="385" y="312" width="130" height="24" rx="4" fill="#164e63" opacity="0.6"/>
  <text x="450" y="328" text-anchor="middle" font-family="system-ui" font-size="10" font-weight="700" fill="#22d3ee">KERNEL MODULES</text>

  <g>
    <rect x="401" y="348" width="145" height="60" rx="4" fill="#0d0d0d" stroke="#1a1a1a" stroke-width="1"/>
    <rect x="401" y="348" width="145" height="2" rx="1" fill="#818cf8"/>
    <text x="411" y="366" font-family="monospace" font-size="9" font-weight="700" fill="#818cf8">kairos_dmverity</text>
    <text x="411" y="380" font-family="system-ui" font-size="8" fill="#525252">dm-verity sysfs mgr</text>
    <text x="411" y="394" font-family="monospace" font-size="7" fill="#404040">active_targets attr</text>
    <text x="411" y="406" font-family="monospace" font-size="7" fill="#404040">root_hash sysfs</text>

    <rect x="558" y="348" width="143" height="60" rx="4" fill="#0d0d0d" stroke="#1a1a1a" stroke-width="1"/>
    <rect x="558" y="348" width="143" height="2" rx="1" fill="#34d399"/>
    <text x="568" y="366" font-family="monospace" font-size="9" font-weight="700" fill="#34d399">kairos_tpm</text>
    <text x="568" y="380" font-family="system-ui" font-size="8" fill="#525252">TPM 2.0 PCR Binding</text>
    <text x="568" y="394" font-family="monospace" font-size="7" fill="#404040">pcr_read/available</text>
    <text x="568" y="406" font-family="monospace" font-size="7" fill="#404040">sysfs group</text>

    <rect x="401" y="418" width="145" height="60" rx="4" fill="#0d0d0d" stroke="#1a1a1a" stroke-width="1"/>
    <rect x="401" y="418" width="145" height="2" rx="1" fill="#f472b6"/>
    <text x="411" y="436" font-family="monospace" font-size="9" font-weight="700" fill="#f472b6">kairos_edac</text>
    <text x="411" y="450" font-family="system-ui" font-size="8" fill="#525252">ECC Memory Handler</text>
    <text x="411" y="464" font-family="monospace" font-size="7" fill="#404040">CE · UE · retired_page</text>
    <text x="411" y="476" font-family="monospace" font-size="7" fill="#404040">Per-DIMM counters</text>

    <rect x="558" y="418" width="143" height="60" rx="4" fill="#0d0d0d" stroke="#1a1a1a" stroke-width="1"/>
    <rect x="558" y="418" width="143" height="2" rx="1" fill="#fbbf24"/>
    <text x="568" y="436" font-family="monospace" font-size="9" font-weight="700" fill="#fbbf24">kairos_ptp</text>
    <text x="568" y="450" font-family="system-ui" font-size="8" fill="#525252">PTP Hardware Clock</text>
    <text x="568" y="464" font-family="monospace" font-size="7" fill="#404040">ptp_clock_register</text>
    <text x="568" y="476" font-family="monospace" font-size="7" fill="#404040">adjfine/settime64</text>

    <rect x="401" y="488" width="145" height="60" rx="4" fill="#0d0d0d" stroke="#1a1a1a" stroke-width="1"/>
    <rect x="401" y="488" width="145" height="2" rx="1" fill="#22d3ee"/>
    <text x="411" y="506" font-family="monospace" font-size="9" font-weight="700" fill="#22d3ee">kairos_fb</text>
    <text x="411" y="520" font-family="system-ui" font-size="8" fill="#525252">Framebuffer Canvas</text>
    <text x="411" y="534" font-family="monospace" font-size="7" fill="#404040">fb_info · vmalloc</text>
    <text x="411" y="546" font-family="monospace" font-size="7" fill="#404040">register_framebuffer</text>

    <rect x="558" y="488" width="143" height="60" rx="4" fill="#0d0d0d" stroke="#1a1a1a" stroke-width="1"/>
    <rect x="558" y="488" width="143" height="2" rx="1" fill="#60a5fa"/>
    <text x="568" y="506" font-family="monospace" font-size="9" font-weight="700" fill="#60a5fa">kairos_iommu</text>
    <text x="568" y="520" font-family="system-ui" font-size="8" fill="#525252">IOMMU DMA Isolation</text>
    <text x="568" y="534" font-family="monospace" font-size="7" fill="#404040">group_count/enforced</text>
    <text x="568" y="546" font-family="monospace" font-size="7" fill="#404040">active sysfs attr</text>

    <rect x="401" y="520" width="300" height="16" rx="3" fill="#0d0d0d" stroke="#1a1a1a" stroke-width="1"/>
    <rect x="401" y="520" width="300" height="1" rx="0.5" fill="#ec4899"/>
    <text x="411" y="533" font-family="monospace" font-size="8" fill="#f472b6">kairos_prochot</text>
    <text x="515" y="533" font-family="monospace" font-size="8" fill="#525252">— Thermal throttle · cpufreq_update_policy</text>
  </g>

  <!-- Card 6: CI/CD + Packaging -->
  <rect x="730" y="312" width="340" height="230" rx="8" fill="#0a0a0a" stroke="#141414" stroke-width="1" filter="url(#shadow)"/>
  <rect x="730" y="312" width="340" height="3" rx="1.5" fill="#f59e0b"/>
  <rect x="730" y="312" width="90" height="24" rx="4" fill="#422006" opacity="0.6"/>
  <text x="775" y="328" text-anchor="middle" font-family="system-ui" font-size="10" font-weight="700" fill="#fbbf24">CI/CD</text>

  <g>
    <rect x="746" y="348" width="310" height="26" rx="4" fill="#0d0d0d" stroke="#1a1a1a" stroke-width="1"/>
    <rect x="746" y="348" width="310" height="1" rx="0.5" fill="#f59e0b"/>
    <circle cx="760" cy="361" r="3" fill="#fbbf24"/>
    <text x="770" y="365" font-family="monospace" font-size="9" fill="#a3a3a3">GitHub Actions: Rust cross-compile (x86_64 + aarch64)</text>

    <rect x="746" y="382" width="310" height="26" rx="4" fill="#0d0d0d" stroke="#1a1a1a" stroke-width="1"/>
    <circle cx="760" cy="395" r="3" fill="#fbbf24"/>
    <text x="770" y="399" font-family="monospace" font-size="9" fill="#a3a3a3">cargo clippy -- -D warnings · cargo fmt --check</text>

    <rect x="746" y="416" width="310" height="26" rx="4" fill="#0d0d0d" stroke="#1a1a1a" stroke-width="1"/>
    <circle cx="760" cy="429" r="3" fill="#fbbf24"/>
    <text x="770" y="433" font-family="monospace" font-size="9" fill="#a3a3a3">Rust test · Python test (ruff + mypy + pytest)</text>

    <rect x="746" y="450" width="310" height="26" rx="4" fill="#0d0d0d" stroke="#1a1a1a" stroke-width="1"/>
    <circle cx="760" cy="463" r="3" fill="#fbbf24"/>
    <text x="770" y="467" font-family="monospace" font-size="9" fill="#a3a3a3">Kernel build (all 7 modules) · shellcheck</text>

    <rect x="746" y="484" width="310" height="26" rx="4" fill="#0d0d0d" stroke="#1a1a1a" stroke-width="1"/>
    <circle cx="760" cy="497" r="3" fill="#fbbf24"/>
    <text x="770" y="501" font-family="monospace" font-size="9" fill="#a3a3a3">Security: Trivy SAST · cargo-audit · gitleaks</text>

    <rect x="746" y="518" width="310" height="18" rx="3" fill="#050505" stroke="#141414" stroke-width="1"/>
    <text x="756" y="531" font-family="monospace" font-size="8" fill="#fbbf24">Packaging:</text>
    <text x="828" y="531" font-family="monospace" font-size="8" fill="#525252">Debian (.deb) · RPM (.rpm) · Arch (PKGBUILD) · Docker · ISO</text>
  </g>
</svg>
